<svg xmlns="http://www.w3.org/2000/svg" xmlns:xlink="http://www.w3.org/1999/xlink" width="406.476" height="177.008" viewBox="0 0 107.547 46.833">
  <g transform="translate(-5.675 -395.408)">
    <path id="a" fill="#d40055" fill-opacity="1" stroke="none" stroke-linecap="square" stroke-opacity=".798" stroke-width=".265" d="M-75.747 116.155h39.423v26.194h-39.423z" paint-order="markers stroke fill"/>
    <path id="b" fill="#fff" fill-opacity="1" stroke="#000" stroke-dasharray="none" stroke-dashoffset="0" stroke-linecap="square" stroke-linejoin="miter" stroke-miterlimit="4" stroke-opacity="1" stroke-width=".529" d="M95.23 396.257h3.969v-.53l-4.498-.052v46.298l4.498-.052v-.53h-3.97z" opacity="1" paint-order="markers stroke fill" stop-color="#000" stop-opacity="1" style="" vector-effect="none"/>
    <use xlink:href="#a" transform="translate(118.654 289.573)"/>
    <text xml:space="preserve" x="62.525" y="417.551" fill="#fff" stroke-linecap="square" stroke-opacity=".798" stroke-width=".265" font-family="Monospace" font-size="5.644" font-weight="700" paint-order="markers stroke fill" style="Monospace, Bold&quot;;text-align:center" text-anchor="middle"><tspan x="62.525" y="417.551" style="Monospace, Bold&quot;;">Coordinate</tspan><tspan x="62.525" y="424.607" style="Monospace, Bold&quot;;">Encoder</tspan></text>
    <path fill="#fff" stroke="#000" stroke-linecap="square" stroke-width=".529" d="m38.613 420.2 2.093-1.376-2.093-1.375v1.088H5.94v.529h32.674Zm51.388 0 2.092-1.376-2.092-1.375v1.088h-5.686v.529H90z" paint-order="markers stroke fill"/>
    <text xml:space="preserve" x="23.431" y="416.145" fill="#f9f9f9" stroke="#000" stroke-linecap="square" stroke-width="1.058" font-family="Monospace" font-size="5.644" font-weight="400" paint-order="markers stroke fill" style="text-align:start;" text-anchor="middle"><tspan x="23.431" y="416.145" style="text-align:start;">(0.5, 0.4)</tspan></text>
    <text xml:space="preserve" x="109.786" y="403.28" fill="#f9f9f9" stroke="#000" stroke-linecap="square" stroke-width="1.058" font-family="Monospace" font-size="5.644" font-weight="400" paint-order="markers stroke fill" style="text-align:start;" text-anchor="end"><tspan x="109.786" y="403.28" style="text-align:start;">1.1</tspan><tspan x="109.786" y="410.336" style="text-align:start;">-0.9</tspan><tspan x="109.786" y="417.391" style="text-align:start;">4.3</tspan><tspan x="109.786" y="424.447" style="text-align:start;">0.6</tspan><tspan x="109.786" y="431.502" style="text-align:start;">-2.8</tspan><tspan x="109.786" y="438.558" style="text-align:start;">...</tspan></text>
    <use xlink:href="#b" fill="#fff" stroke="#000" stroke-linecap="square" stroke-width=".529" paint-order="markers stroke fill" style="" transform="matrix(-1 0 0 1 207.658 0)"/>
  </g>
</svg>
