<svg xmlns="http://www.w3.org/2000/svg" xmlns:xlink="http://www.w3.org/1999/xlink" width="767.201" height="402.504" viewBox="0 0 202.989 106.496">
  <g transform="translate(-313.782 -436.605)">
    <path fill="#fff" stroke="#000" stroke-linecap="square" stroke-width=".529" d="M456.78 474.18c-14.706-14.357-14.865-21.353-48.928-21.353h-93.806v-.529l94.335-.052c33.808-.019 34.543 7.348 48.648 21.405l1.585 1.58.8-.802.508 2.452-2.451-.507.769-.77zm1.56 18.26c-3.426 3.652-16.629 18.648-24.141 18.923-15.974.583-48.482 0-48.482 0v.529s32.321.036 48.482.052c6.851.007 20.46-14.96 24.39-18.975.52-.534 1.584-1.58 1.584-1.58l.801.801.508-2.452-2.452.508.77.769s-.995.929-1.46 1.424z" paint-order="markers stroke fill"/>
    <text xml:space="preserve" x="357.215" y="441.423" fill="#fff" stroke="#000" stroke-linecap="square" stroke-opacity=".798" stroke-width="1.058" font-family="Monospace" font-size="5.644" font-weight="700" paint-order="markers stroke fill" style="Monospace, Bold&quot;;text-align:start"><tspan x="357.215" y="441.423" style="Monospace, Bold&quot;;text-align:start">Prompt Encoder</tspan></text>
    <text xml:space="preserve" x="335.189" y="449.913" fill="#fff" stroke="#000" stroke-linecap="square" stroke-width=".794" font-family="Monospace" font-size="4.233" font-weight="400" paint-order="markers stroke fill" style="text-align:start;" text-anchor="middle"><tspan x="335.189" y="449.913" style="text-align:start;">encoded fg<tspan style="text-align:center"> </tspan>xy</tspan></text>
    <text xml:space="preserve" x="497.329" y="479.905" fill="#fff" stroke="#000" stroke-linecap="square" stroke-width=".794" font-family="Monospace" font-size="4.233" font-weight="400" paint-order="markers stroke fill" style="text-align:start;" text-anchor="middle"><tspan x="497.329" y="479.905" style="text-align:start;">pro<tspan style="text-align:center">m</tspan>pt tokens</tspan></text>
    <text xml:space="preserve" x="335.189" y="468.555" fill="#fff" stroke="#000" stroke-linecap="square" stroke-width=".794" font-family="Monospace" font-size="4.233" font-weight="400" paint-order="markers stroke fill" style="text-align:center;" text-anchor="middle"><tspan x="335.189" y="468.555" style="text-align:center;">encoded bg xy</tspan></text>
    <text xml:space="preserve" x="335.189" y="500.103" fill="#fff" stroke="#000" stroke-linecap="square" stroke-width=".794" font-family="Monospace" font-size="4.233" font-weight="400" paint-order="markers stroke fill" style="text-align:center;" text-anchor="middle"><tspan x="335.189" y="500.103" style="text-align:center;">encoded boxes xy</tspan></text>
    <path fill="#fff" stroke="#000" stroke-linecap="square" stroke-width=".529" d="M361.506 502.597v9.293h4.44v1.133l2.092-1.375-2.093-1.375v1.088h-3.91v-17.21h3.91v1.134l2.093-1.375-2.093-1.375v1.087h-4.44v8.446h-47.459v.529z" paint-order="markers stroke fill"/>
    <text xml:space="preserve" x="497.269" y="487.914" fill="#fff" stroke="#000" stroke-linecap="square" stroke-width=".794" font-family="Monospace" font-size="4.233" font-weight="400" paint-order="markers stroke fill" style="text-align:center;" text-anchor="middle"><tspan x="497.269" y="487.914" style="text-align:center;">BxN<tspan baseline-shift="sub" font-size="65%" style="text-align:center;">total</tspan>xF</tspan></text>
    <text xml:space="preserve" x="335.187" y="508.141" fill="#fff" stroke="#000" stroke-linecap="square" stroke-width=".794" font-family="Monospace" font-size="4.233" font-weight="400" paint-order="markers stroke fill" style="text-align:center;" text-anchor="middle"><tspan x="335.187" y="508.141" style="text-align:center;">BxN<tspan baseline-shift="sub" font-size="65%" style="text-align:center;">box</tspan>x2xF</tspan></text>
    <text xml:space="preserve" x="335.187" y="476.308" fill="#fff" stroke="#000" stroke-linecap="square" stroke-width=".794" font-family="Monospace" font-size="4.233" font-weight="400" paint-order="markers stroke fill" style="text-align:center;" text-anchor="middle"><tspan x="335.187" y="476.308" style="text-align:center;">BxN<tspan baseline-shift="sub" font-size="65%" style="text-align:center;">bg</tspan>xF</tspan></text>
    <text xml:space="preserve" x="335.187" y="457.666" fill="#fff" stroke="#000" stroke-linecap="square" stroke-width=".794" font-family="Monospace" font-size="4.233" font-weight="400" paint-order="markers stroke fill" style="text-align:center;" text-anchor="middle"><tspan x="335.187" y="457.666" style="text-align:center;">BxN<tspan baseline-shift="sub" font-size="65%" style="text-align:center;">fg</tspan>xF</tspan></text>
    <g stroke-linecap="square" stroke-width=".529" paint-order="markers stroke fill" transform="translate(44.584 151.83)">
      <circle cx="421.857" cy="330.75" r="7.673" fill="#0a8" stroke="#000"/>
      <text xml:space="preserve" x="421.669" y="332.328" fill="#1a1a1a" font-family="Monospace" font-size="4.233" font-weight="400" style="text-align:center" text-anchor="middle"><tspan x="421.669" y="332.328" style="">stack</tspan></text>
    </g>
    <path id="a" fill="#0a8" fill-opacity="1" stroke="#000" stroke-dasharray="none" stroke-linecap="square" stroke-width=".529" d="M414.06 281.311h41.804v6.085H414.06z" paint-order="stroke fill markers"/>
    <path fill="#fff" stroke="#000" stroke-linecap="square" stroke-width=".529" d="m514.196 483.956 2.092-1.376-2.092-1.374v1.087h-39.024v.53h39.024z" paint-order="markers stroke fill"/>
    <g transform="translate(-43.645 262.543)">
      <use xlink:href="#a" stroke-width=".978" transform="matrix(1 0 0 1.046 8.996 -31.668)"/>
      <text xml:space="preserve" x="443.945" y="267.289" fill="#1a1a1a" stroke-linecap="square" stroke-width=".529" font-family="Monospace" font-size="4.233" font-weight="400" paint-order="markers stroke fill" style="text-align:center" text-anchor="middle"><tspan x="443.945" y="267.289" style="">not-a-point</tspan></text>
    </g>
    <path fill="#fff" stroke="#000" stroke-linecap="square" stroke-width=".529" d="M466.682 496.62h1.134l-1.375-2.092-1.375 2.093h1.087v31.343H422.23v.529l44.452.052zm-80.967-3.002v.53l51.656.051v-9.037h18.354v1.087l2.093-1.375-2.093-1.375v1.133h-18.883v8.986zm-71.669-21.833v-.529l123.325-.052v8.679h18.492v-1.087l2.093 1.374-2.093 1.375v-1.133h-19.021v-8.627z" paint-order="markers stroke fill"/>
    <g stroke-linecap="square" stroke-width=".529" paint-order="markers stroke fill" transform="translate(-80.025 3.905)">
      <circle cx="457.011" cy="490.006" r="7.673" fill="#0a8" stroke="#000"/>
      <text xml:space="preserve" x="456.906" y="488.938" fill="#1a1a1a" font-family="Monospace" font-size="4.233" font-weight="400" style="text-align:center" text-anchor="middle"><tspan x="456.906" y="488.938" style="">index</tspan><tspan x="456.906" y="494.23" style="">0</tspan></text>
    </g>
    <g transform="translate(-33.548 245.952)">
      <use xlink:href="#a" stroke-width=".978" transform="matrix(1 0 0 1.046 8.996 -31.668)"/>
      <text xml:space="preserve" x="443.945" y="267.289" fill="#1a1a1a" stroke-linecap="square" stroke-width=".529" font-family="Monospace" font-size="4.233" font-weight="400" paint-order="markers stroke fill" style="text-align:center" text-anchor="middle"><tspan x="443.945" y="267.289" style="">+ box-br embed</tspan></text>
    </g>
    <g stroke-linecap="square" stroke-width=".529" paint-order="markers stroke fill" transform="translate(-70.846 -3.684)">
      <circle cx="447.832" cy="515.335" r="7.673" fill="#0a8" stroke="#000"/>
      <text xml:space="preserve" x="447.726" y="514.267" fill="#1a1a1a" font-family="Monospace" font-size="4.233" font-weight="400" style="text-align:center" text-anchor="middle"><tspan x="447.726" y="514.267" style="">index</tspan><tspan x="447.726" y="519.559" style="">1</tspan></text>
    </g>
    <g transform="translate(-61.61 186.91)">
      <use xlink:href="#a" stroke-width=".978" transform="matrix(1 0 0 1.046 8.996 -31.668)"/>
      <text xml:space="preserve" x="443.945" y="267.289" fill="#1a1a1a" stroke-linecap="square" stroke-width=".529" font-family="Monospace" font-size="4.233" font-weight="400" paint-order="markers stroke fill" style="text-align:center" text-anchor="middle"><tspan x="443.945" y="267.289" style="">+ fg embed</tspan></text>
    </g>
    <g transform="translate(-33.548 228.212)">
      <use xlink:href="#a" stroke-width=".978" transform="matrix(1 0 0 1.046 8.996 -31.668)"/>
      <text xml:space="preserve" x="443.945" y="267.289" fill="#1a1a1a" stroke-linecap="square" stroke-width=".529" font-family="Monospace" font-size="4.233" font-weight="400" paint-order="markers stroke fill" style="text-align:center" text-anchor="middle"><tspan x="443.945" y="267.289" style="">+ box-tl embed</tspan></text>
    </g>
    <g transform="translate(-61.61 205.552)">
      <use xlink:href="#a" stroke-width=".978" transform="matrix(1 0 0 1.046 8.996 -31.668)"/>
      <text xml:space="preserve" x="443.945" y="267.289" fill="#1a1a1a" stroke-linecap="square" stroke-width=".529" font-family="Monospace" font-size="4.233" font-weight="400" paint-order="markers stroke fill" style="text-align:center" text-anchor="middle"><tspan x="443.945" y="267.289" style="">+ bg embed</tspan></text>
    </g>
    <path fill="#b3b3b3" stroke="#000" stroke-linecap="square" stroke-width=".529" d="m434.47 528.242 11.75-11.75 11.75 11.75-11.75 11.75z" paint-order="stroke fill markers"/>
    <text xml:space="preserve" x="446.161" y="527.174" fill="#1a1a1a" stroke-linecap="square" stroke-width=".529" font-family="Monospace" font-size="4.233" font-weight="400" paint-order="markers stroke fill" style="text-align:center;" text-anchor="middle"><tspan x="446.161" y="527.174" style="text-align:center;">If no</tspan><tspan x="446.161" y="532.466" style="text-align:center;">boxes</tspan></text>
    <path fill="none" stroke="#d40055" stroke-linecap="square" stroke-width="1.058" d="M357.926 443.391h120.715v99.181H357.926z" paint-order="stroke fill markers"/>
  </g>
</svg>
