<svg xmlns="http://www.w3.org/2000/svg" xml:space="preserve" width="426.454" height="370.695" viewBox="0 0 112.833 98.08">
  <g stroke="#000" stroke-linecap="square">
    <g stroke-linejoin="round" stroke-width=".529">
      <g fill="#5aa02c">
        <path d="m94.371 82.554.07-11.096 6.882-6.068v11.112z"/>
        <path d="M94.371 82.554 83.4 79.397V68.29l11.042 3.169zm.07-11.096L83.4 68.289l7.035-6.024 10.89 3.125z"/>
      </g>
      <g fill="#c83737">
        <path d="m105.268 85.689.07-11.096 6.882-6.068v11.111zm0 0-10.973-3.157V71.424l11.042 3.169z"/>
        <path d="m105.337 74.593-11.042-3.17 7.035-6.024 10.89 3.126z"/>
      </g>
      <g fill="#5aa02c">
        <path d="m94.441 71.458.07-11.096 6.882-6.068v11.112z"/>
        <path d="M94.441 71.458 83.468 68.3V57.193l11.043 3.169z"/>
        <path d="m94.51 60.362-11.042-3.17 7.035-6.024 10.89 3.126z"/>
      </g>
      <g fill="#5aa02c">
        <path d="m94.476 60.356.07-11.096 6.882-6.068v11.111zm0 0-10.973-3.157V46.091l11.043 3.169z"/>
        <path d="m94.546 49.26-11.043-3.17 7.035-6.024 10.89 3.126z"/>
      </g>
      <g fill="#c83737">
        <path d="m105.337 74.593.07-11.096 6.882-6.068V68.54z"/>
        <path d="m105.337 74.593-10.972-3.157V60.328l11.042 3.169z"/>
        <path d="m105.407 63.497-11.042-3.17 7.035-6.024 10.89 3.126z"/>
      </g>
      <g fill="#c83737">
        <path d="m105.407 63.497.07-11.096 6.882-6.068v11.111z"/>
        <path d="M105.407 63.497 94.434 60.34V49.232l11.043 3.169zm.07-11.097-11.043-3.168 7.035-6.025 10.89 3.126z"/>
      </g>
      <g fill="#c83737">
        <path d="m94.546 49.26.07-11.097 6.882-6.068v11.112zm0 0-10.973-3.157V34.995l11.042 3.168z"/>
        <path d="m94.615 38.163-11.042-3.168 7.035-6.025 10.89 3.125z"/>
      </g>
      <g fill="#8d5fd3">
        <path d="m105.477 52.4.07-11.096 6.882-6.068v11.112zm0 0-10.973-3.156V38.136l11.042 3.168z"/>
        <path d="m105.546 41.304-11.042-3.168 7.035-6.025 10.89 3.125z"/>
      </g>
      <g fill="#c83737">
        <path d="m94.615 38.163.07-11.096L101.567 21v11.112z"/>
        <path d="m94.615 38.163-10.972-3.156V23.898l11.042 3.17zm.07-11.096-11.042-3.169 7.035-6.024 10.89 3.125z"/>
      </g>
      <g fill="#8d5fd3">
        <path d="m105.546 41.304.07-11.096 6.882-6.068v11.112z"/>
        <path d="m105.546 41.304-10.972-3.156V27.039l11.042 3.17z"/>
        <path d="M105.616 30.208 94.574 27.04l7.035-6.024 10.89 3.125z"/>
      </g>
      <g fill="#c83737">
        <path d="m94.65 27.061.07-11.096 6.882-6.068V21.01z"/>
        <path d="m94.65 27.061-10.972-3.156V12.796l11.042 3.17z"/>
        <path d="m94.72 15.965-11.042-3.169 7.035-6.024 10.89 3.125z"/>
      </g>
      <g fill="#8d5fd3">
        <path d="m105.616 30.208.07-11.096 6.882-6.068v11.112z"/>
        <path d="m105.616 30.208-10.972-3.156V15.943l11.042 3.17zm.07-11.096-11.042-3.169 7.034-6.024 10.89 3.125z"/>
      </g>
      <g fill="#5aa02c">
        <path d="m87.49 88.622.069-11.096 6.882-6.068V82.57z"/>
        <path d="m87.49 88.622-10.973-3.157V74.357l11.042 3.169zm.069-11.096-11.042-3.17 7.034-6.024 10.89 3.126z"/>
      </g>
      <g fill="#c83737">
        <path d="m98.385 91.757.07-11.096 6.882-6.068v11.111z"/>
        <path d="M98.385 91.757 87.413 88.6V77.492l11.042 3.169zm.07-11.097-11.042-3.168 7.035-6.025 10.89 3.126z"/>
      </g>
      <g fill="#5aa02c">
        <path d="m87.559 77.526.07-11.096 6.882-6.068v11.111z"/>
        <path d="m87.559 77.526-10.973-3.157V63.261L87.63 66.43z"/>
        <path d="m87.629 66.43-11.043-3.17 7.035-6.024 10.89 3.126z"/>
      </g>
      <g fill="#5aa02c">
        <path d="m87.594 66.424.07-11.097 6.882-6.067v11.11zm0 0L76.62 63.267V52.159l11.042 3.168z"/>
        <path d="M87.663 55.327 76.621 52.16l7.035-6.025 10.89 3.126z"/>
      </g>
      <g fill="#c83737">
        <path d="m98.455 80.66.07-11.095 6.882-6.068v11.111z"/>
        <path d="m98.455 80.66-10.972-3.156V66.396l11.042 3.169zm.07-11.095-11.042-3.17 7.034-6.024 10.89 3.126z"/>
      </g>
      <g fill="#c83737">
        <path d="m98.525 69.565.07-11.097 6.882-6.067v11.111z"/>
        <path d="m98.525 69.565-10.973-3.157V55.3l11.043 3.168z"/>
        <path d="M98.595 58.468 87.552 55.3l7.035-6.025 10.89 3.126z"/>
      </g>
      <g fill="#c83737">
        <path d="m87.663 55.327.07-11.096 6.882-6.068v11.112z"/>
        <path d="m87.663 55.327-10.972-3.156V41.062l11.042 3.17z"/>
        <path d="m87.733 44.231-11.042-3.169 7.035-6.024 10.89 3.125z"/>
      </g>
      <g fill="#8d5fd3">
        <path d="m98.595 58.468.07-11.096 6.881-6.068v11.112zm0 0-10.973-3.156V44.203l11.042 3.17z"/>
        <path d="m98.664 47.372-11.042-3.169 7.035-6.024 10.89 3.125z"/>
      </g>
      <g fill="#c83737">
        <path d="m87.733 44.231.07-11.096 6.882-6.068V38.18z"/>
        <path d="m87.733 44.231-10.972-3.156V29.966l11.042 3.17z"/>
        <path d="M87.803 33.135 76.76 29.966l7.034-6.024 10.89 3.125z"/>
      </g>
      <g fill="#8d5fd3">
        <path d="m98.664 47.372.07-11.096 6.882-6.068V41.32z"/>
        <path d="m98.664 47.372-10.972-3.156V33.107l11.042 3.17z"/>
        <path d="m98.734 36.276-11.042-3.169 7.035-6.024 10.89 3.125z"/>
      </g>
      <g fill="#c83737">
        <path d="m87.768 33.13.07-11.097 6.882-6.068v11.112z"/>
        <path d="m87.768 33.13-10.973-3.157V18.864l11.043 3.169z"/>
        <path d="m87.838 22.033-11.043-3.169 7.035-6.024 10.89 3.125z"/>
      </g>
      <g fill="#8d5fd3">
        <path d="m98.734 36.276.07-11.096 6.882-6.068v11.112z"/>
        <path d="M98.734 36.276 87.761 33.12V22.01l11.043 3.17z"/>
        <path d="M98.804 25.18 87.76 22.011l7.035-6.024 10.89 3.125z"/>
      </g>
      <g fill="#5aa02c">
        <path d="m80.572 94.68.07-11.096 6.882-6.068v11.112z"/>
        <path d="M80.572 94.68 69.6 91.524V80.415l11.042 3.17zm.07-11.096L69.6 80.415l7.034-6.024 10.89 3.125z"/>
      </g>
      <g fill="#c83737">
        <path d="m91.468 97.815.07-11.096 6.882-6.068v11.112z"/>
        <path d="M91.468 97.815 80.496 94.66V83.55l11.042 3.17z"/>
        <path d="m91.538 86.72-11.042-3.17 7.035-6.024 10.89 3.125z"/>
      </g>
      <g fill="#5aa02c">
        <path d="m80.642 83.584.07-11.096 6.882-6.068v11.112z"/>
        <path d="m80.642 83.584-10.973-3.156V69.319l11.043 3.17z"/>
        <path d="M80.712 72.488 69.669 69.32l7.035-6.024 10.89 3.125z"/>
      </g>
      <g fill="#5aa02c">
        <path d="m80.677 72.482.07-11.096 6.882-6.068V66.43zm0 0-10.973-3.157V58.217l11.042 3.169z"/>
        <path d="m80.746 61.386-11.042-3.169 7.035-6.024 10.89 3.125z"/>
      </g>
      <g fill="#c83737">
        <path d="m91.538 86.72.07-11.097 6.882-6.068v11.112z"/>
        <path d="m91.538 86.72-10.973-3.157V72.454l11.043 3.169z"/>
        <path d="m91.608 75.623-11.043-3.169L87.6 66.43l10.89 3.125z"/>
      </g>
      <g fill="#c83737">
        <path d="m91.608 75.623.07-11.096 6.882-6.068v11.112zm0 0-10.973-3.157V61.358l11.042 3.169z"/>
        <path d="m91.677 64.527-11.042-3.169 7.035-6.024 10.89 3.125z"/>
      </g>
      <g fill="#c83737">
        <path d="m80.746 61.386.07-11.096 6.882-6.068v11.112z"/>
        <path d="m80.746 61.386-10.972-3.157V47.121l11.042 3.169zm.07-11.096-11.042-3.17 7.035-6.024 10.89 3.125z"/>
      </g>
      <g fill="#8d5fd3">
        <path d="m91.677 64.527.07-11.096 6.882-6.068v11.112z"/>
        <path d="M91.677 64.527 80.705 61.37V50.262l11.042 3.169zm.07-11.097-11.042-3.168 7.035-6.024 10.89 3.125z"/>
      </g>
      <g fill="#c83737">
        <path d="m80.816 50.29.07-11.096 6.882-6.068v11.112z"/>
        <path d="m80.816 50.29-10.972-3.157V36.025l11.042 3.169z"/>
        <path d="m80.886 39.194-11.042-3.17L76.878 30l10.89 3.126z"/>
      </g>
      <g fill="#8d5fd3">
        <path d="m91.747 53.43.07-11.095 6.882-6.068v11.112z"/>
        <path d="m91.747 53.43-10.972-3.156V39.166l11.042 3.169z"/>
        <path d="m91.817 42.335-11.042-3.17 7.034-6.024 10.89 3.126z"/>
      </g>
      <g fill="#c83737">
        <path d="m80.851 39.188.07-11.096 6.882-6.068v11.111zm0 0L69.878 36.03V24.923l11.043 3.169z"/>
        <path d="m80.92 28.092-11.042-3.17 7.035-6.024 10.89 3.126z"/>
      </g>
      <g fill="#8d5fd3">
        <path d="m91.817 42.335.07-11.096 6.882-6.068v11.111z"/>
        <path d="m91.817 42.335-10.973-3.157V28.07l11.043 3.169zm.07-11.096-11.043-3.17 7.035-6.024 10.89 3.126z"/>
      </g>
    </g>
    <g stroke-linejoin="round" stroke-width=".529">
      <g fill="#c83737">
        <path d="m25.141 82.57.07-11.096 6.882-6.068v11.112z"/>
        <path d="m25.141 82.57-10.973-3.156V68.305l11.043 3.17zm.069-11.096-11.042-3.169 7.035-6.024 10.89 3.125z"/>
      </g>
      <g fill="#5aa02c">
        <path d="m18.19 88.623.069-11.096 6.882-6.068V82.57zm0 0L7.215 85.466V74.358l11.043 3.169z"/>
        <path d="m18.259 77.527-11.043-3.17 7.035-6.024 10.89 3.126z"/>
      </g>
      <g fill="#06f">
        <path d="m11.237 94.675.07-11.096 6.882-6.068v11.112z"/>
        <path d="M11.237 94.675.265 91.518V80.41l11.042 3.169z"/>
        <path d="M11.307 83.579.265 80.41l7.034-6.024 10.89 3.125z"/>
      </g>
      <g fill="#8d5fd3">
        <path d="m25.176 71.466.07-11.096 6.882-6.068v11.112z"/>
        <path d="M25.176 71.466 14.203 68.31V57.202l11.043 3.168z"/>
        <path d="m25.246 60.37-11.043-3.168 7.035-6.025 10.89 3.125z"/>
      </g>
      <g fill="#c83737">
        <path d="m18.259 77.527.07-11.096 6.882-6.068v11.111zm0 0L7.286 74.37V63.262l11.042 3.169z"/>
        <path d="M18.328 66.43 7.286 63.263l7.035-6.025 10.89 3.126z"/>
      </g>
      <g fill="#5aa02c">
        <path d="m11.307 83.579.07-11.096 6.882-6.068v11.112zm0 0L.334 80.422V69.314l11.043 3.169z"/>
        <path d="M11.377 72.483.334 69.314 7.37 63.29l10.89 3.125z"/>
      </g>
      <g fill="#fc0">
        <path d="m25.315 60.383.07-11.096 6.882-6.068V54.33zm0 0-10.972-3.157V46.118l11.042 3.169z"/>
        <path d="m25.385 49.287-11.042-3.17 7.035-6.024 10.89 3.126z"/>
      </g>
      <path fill="#8d5fd3" d="m18.294 66.423.07-11.096 6.882-6.068V60.37zm0 0L7.32 63.266V52.158l11.042 3.169zm.069-11.096-11.042-3.17 7.035-6.024 10.89 3.126z"/>
      <g fill="#c83737">
        <path d="m11.377 72.483.07-11.096 6.881-6.068V66.43zm0 0L.404 69.326V58.218l11.042 3.169z"/>
        <path d="M11.446 61.387.404 58.217l7.035-6.024 10.89 3.126z"/>
      </g>
      <g fill="#c83737">
        <path d="m25.35 49.28.07-11.096 6.882-6.068v11.112z"/>
        <path d="m25.35 49.28-10.973-3.156V35.015l11.043 3.17zm.07-11.096-11.043-3.169 7.035-6.024 10.89 3.125z"/>
      </g>
      <g fill="#8d5fd3">
        <path d="m25.385 38.178.07-11.096 6.882-6.068v11.112z"/>
        <path d="m25.385 38.178-10.973-3.156V23.913l11.043 3.17z"/>
        <path d="m25.455 27.082-11.043-3.169 7.035-6.024 10.89 3.125z"/>
      </g>
      <g fill="#fc0">
        <path d="m25.385 27.066.07-11.096 6.882-6.068v11.112zm0 0L14.412 23.91V12.802l11.043 3.168z"/>
        <path d="m25.455 15.97-11.043-3.168 7.035-6.025 10.89 3.125z"/>
      </g>
      <g fill="#5aa02c">
        <path d="m18.433 55.339.07-11.096 6.882-6.068v11.112z"/>
        <path d="M18.433 55.339 7.46 52.182V41.074l11.043 3.169z"/>
        <path d="M18.503 44.243 7.46 41.073l7.035-6.024 10.89 3.126z"/>
      </g>
      <g fill="#c83737">
        <path d="m18.468 44.237.07-11.096 6.882-6.068v11.111zm0 0L7.495 41.08V29.972l11.043 3.169z"/>
        <path d="M18.538 33.14 7.495 29.973l7.035-6.025 10.89 3.126z"/>
      </g>
      <g fill="#06f">
        <path d="m11.446 61.387.07-11.096 6.882-6.068v11.111z"/>
        <path d="M11.446 61.387.474 58.23V47.122l11.042 3.169z"/>
        <path d="M11.516 50.29.474 47.123l7.035-6.025 10.89 3.126z"/>
      </g>
      <path fill="#5aa02c" d="m11.516 50.29.07-11.095 6.882-6.068v11.111zm0 0L.543 47.135V36.026l11.043 3.169zm.07-11.095L.543 36.025l7.035-6.024 10.89 3.126z"/>
      <g fill="#8d5fd3">
        <path d="m18.503 33.134.07-11.096 6.882-6.068v11.112zm0 0L7.53 29.978V18.869l11.042 3.17z"/>
        <path d="M18.572 22.038 7.53 18.87l7.035-6.024 10.89 3.125z"/>
      </g>
      <g fill="#c83737">
        <path d="m11.586 39.195.07-11.097 6.882-6.067v11.111zm0 0L.613 36.038V24.93l11.042 3.168z"/>
        <path d="M11.655 28.098.613 24.93l7.035-6.025 10.89 3.126z"/>
      </g>
      <g fill="#c83737">
        <path d="m36.065 85.705.07-11.096 6.882-6.068v11.112z"/>
        <path d="M36.065 85.705 25.093 82.55V71.44l11.042 3.17z"/>
        <path d="m36.135 74.61-11.042-3.17 7.035-6.024 10.89 3.125z"/>
      </g>
      <g fill="#5aa02c">
        <path d="m29.114 91.758.07-11.096 6.881-6.068v11.111zm0 0L18.14 88.6V77.493l11.042 3.169z"/>
        <path d="m29.183 80.662-11.042-3.17 7.035-6.024 10.89 3.126z"/>
      </g>
      <g fill="#06f">
        <path d="m22.162 97.81.07-11.096 6.882-6.068v11.112zm0 0-10.973-3.157V83.545l11.042 3.169z"/>
        <path d="M22.231 86.714 11.19 83.545l7.035-6.024 10.89 3.125z"/>
      </g>
      <g fill="#8d5fd3">
        <path d="m36.1 74.601.07-11.096 6.882-6.068V68.55z"/>
        <path d="m36.1 74.601-10.972-3.156V60.336l11.042 3.17z"/>
        <path d="m36.17 63.505-11.042-3.169 7.035-6.024 10.89 3.125z"/>
      </g>
      <g fill="#c83737">
        <path d="m29.183 80.662.07-11.097 6.882-6.068V74.61z"/>
        <path d="m29.183 80.662-10.972-3.157V66.397l11.042 3.168zm.07-11.097-11.042-3.168 7.035-6.025 10.89 3.125z"/>
      </g>
      <g fill="#5aa02c">
        <path d="m22.231 86.714.07-11.096 6.882-6.068v11.112zm0 0L11.26 83.557V72.45l11.04 3.168z"/>
        <path d="m22.301 75.618-11.042-3.17 7.035-6.024 10.89 3.126z"/>
      </g>
      <g fill="#fc0">
        <path d="m36.24 63.518.07-11.097 6.882-6.068v11.112zm0 0L25.267 60.36V49.253L36.31 52.42z"/>
        <path d="m36.31 52.421-11.043-3.168 7.035-6.025 10.89 3.125z"/>
      </g>
      <path fill="#8d5fd3" d="m29.218 69.558.07-11.097 6.882-6.067v11.111zm0 0L18.246 66.4V55.293l11.042 3.168zm.07-11.097-11.042-3.168 7.034-6.025 10.89 3.126z"/>
      <g fill="#c83737">
        <path d="m22.301 75.618.07-11.096 6.882-6.068v11.111z"/>
        <path d="M22.301 75.618 11.328 72.46V61.353l11.043 3.169z"/>
        <path d="m22.37 64.522-11.042-3.17 7.035-6.024 10.89 3.126z"/>
      </g>
      <g fill="#c83737">
        <path d="m36.275 52.415.07-11.096 6.881-6.068v11.112zm0 0L25.302 49.26V38.15l11.042 3.17z"/>
        <path d="m36.344 41.32-11.042-3.17 7.035-6.024 10.89 3.125z"/>
      </g>
      <g fill="#8d5fd3">
        <path d="m36.31 41.313.07-11.096 6.881-6.068v11.112zm0 0-10.973-3.157V27.048l11.042 3.169z"/>
        <path d="m36.38 30.217-11.043-3.169 7.035-6.024 10.89 3.125z"/>
      </g>
      <g fill="#fc0">
        <path d="m36.31 30.201.07-11.096 6.881-6.068V24.15zm0 0-10.973-3.156V15.936l11.042 3.17z"/>
        <path d="m36.38 19.105-11.043-3.169 7.035-6.024 10.89 3.125z"/>
      </g>
      <g fill="#5aa02c">
        <path d="m29.358 58.474.07-11.096 6.881-6.068v11.11zm0 0-10.973-3.157V44.21l11.042 3.169z"/>
        <path d="m29.427 47.378-11.042-3.17 7.035-6.024 10.89 3.126z"/>
      </g>
      <g fill="#c83737">
        <path d="m29.392 47.372.07-11.097 6.882-6.068V41.32z"/>
        <path d="M29.392 47.372 18.42 44.215V33.107l11.042 3.168z"/>
        <path d="M29.462 36.275 18.42 33.107l7.035-6.025 10.89 3.125z"/>
      </g>
      <g fill="#06f">
        <path d="m22.37 64.522.07-11.096 6.883-6.068v11.111zm0 0-10.972-3.157V50.257l11.042 3.169z"/>
        <path d="m22.44 53.426-11.042-3.17 7.035-6.024 10.89 3.126z"/>
      </g>
      <g fill="#5aa02c">
        <path d="m22.44 53.426.07-11.097 6.882-6.068v11.112zm0 0-10.972-3.157V39.16l11.042 3.168z"/>
        <path d="m22.51 42.33-11.042-3.17 7.035-6.024 10.89 3.125z"/>
      </g>
      <g fill="#8d5fd3">
        <path d="m29.427 36.27.07-11.097 6.882-6.068v11.112z"/>
        <path d="m29.427 36.27-10.972-3.157V22.004l11.042 3.17zm.07-11.097-11.042-3.169 7.035-6.024 10.89 3.125z"/>
      </g>
      <g fill="#c83737">
        <path d="m22.51 42.33.07-11.097 6.882-6.068v11.112z"/>
        <path d="m22.51 42.33-10.972-3.157V28.064l11.042 3.17z"/>
        <path d="m22.58 31.233-11.042-3.169 7.034-6.024 10.89 3.125z"/>
      </g>
    </g>
    <text xml:space="preserve" x="-215.997" y="-738.69" fill="#fff" stroke-width=".794" font-family="Monospace" font-size="4.233" font-weight="400" paint-order="markers stroke fill" style="text-align:center;" text-anchor="middle" transform="translate(272.473 791.626)"><tspan x="-215.997" y="-738.69" style="text-align:center;">add</tspan></text>
    <path fill="#fff" stroke-width=".529" d="M47.32 45.779v1.133l-2.093-1.375 2.092-1.375v1.087h18.194v-1.087l2.092 1.375-2.092 1.375v-1.133z" paint-order="markers stroke fill"/>
    <text xml:space="preserve" x="-181.3" y="-788.012" fill="#fff" stroke-width=".794" font-family="Monospace" font-size="4.233" font-weight="400" paint-order="markers stroke fill" style="text-align:center;" text-anchor="middle" transform="translate(272.473 791.626)"><tspan x="-181.3" y="-788.012" style="text-align:center;">Q<tspan baseline-shift="sub" font-size="65%">i</tspan> * ∆y encodings</tspan></text>
    <text xml:space="preserve" x="-250.621" y="-788.007" fill="#fff" stroke-width=".794" font-family="Monospace" font-size="4.233" font-weight="400" paint-order="markers stroke fill" style="text-align:center;" text-anchor="middle" transform="translate(272.473 791.626)"><tspan x="-250.621" y="-788.007" style="text-align:center;">Q<tspan baseline-shift="sub" font-size="65%">i</tspan> * ∆x encodings</tspan></text>
  </g>
</svg>
