<svg xmlns="http://www.w3.org/2000/svg" xml:space="preserve" width="1002.565" height="317.009" viewBox="0 0 265.262 83.875">
  <g stroke-linecap="square">
    <text xml:space="preserve" x="-71.556" y="-444.288" fill="#f60" stroke-width=".265" font-family="Monospace" font-size="4.233" paint-order="markers stroke fill" style="text-align:start" transform="translate(248.955 500.87)"><tspan x="-71.556" y="-444.288" style="text-align:start">Input order:</tspan><tspan x="-71.556" y="-438.996" style="text-align:start">-&gt; prompt posenc</tspan><tspan x="-71.556" y="-433.705" style="text-align:start">-&gt; prompt tokens</tspan><tspan x="-71.556" y="-428.413" style="text-align:start">-&gt; image tokens</tspan><tspan x="-71.556" y="-423.121" style="text-align:start">-&gt; image posenc</tspan></text>
    <path fill="#fc0" stroke="#000" stroke-linejoin="round" stroke-width=".467" d="M49.149 27.55h47.158v33.928H49.149z"/>
    <text xml:space="preserve" x="-133.402" y="-461.029" stroke-opacity=".798" stroke-width=".265" font-family="Monospace" font-size="5.644" font-weight="700" paint-order="markers stroke fill" style="Monospace, Bold&quot;;text-align:center" text-anchor="middle" transform="translate(206.022 500.505)"><tspan x="-133.402" y="-461.029" style="Monospace, Bold&quot;;">Prompt-Image</tspan><tspan x="-133.402" y="-453.974" style="Monospace, Bold&quot;;">Attention</tspan><tspan x="-133.402" y="-446.918" style="Monospace, Bold&quot;;">Block</tspan></text>
    <path fill="#fc0" stroke="#000" stroke-linejoin="round" stroke-width=".374" d="M179.784 19.758h39.313v26.084h-39.313z"/>
    <text xml:space="preserve" x="-20.64" y="-456.139" stroke-opacity=".798" stroke-width=".265" font-family="Monospace" font-size="5.644" font-weight="700" paint-order="markers stroke fill" style="Monospace, Bold&quot;;text-align:center" text-anchor="middle" transform="translate(220.258 487.466)"><tspan x="-20.64" y="-456.139" style="Monospace, Bold&quot;;">Cross</tspan><tspan x="-20.64" y="-449.084" style="Monospace, Bold&quot;;">Attention</tspan></text>
    <text xml:space="preserve" x="-213.651" y="-495.752" fill="#fff" stroke="#000" stroke-opacity=".798" stroke-width="1.058" font-family="Monospace" font-size="5.644" font-weight="700" paint-order="markers stroke fill" style="Monospace, Bold&quot;;text-align:start;" transform="translate(248.955 500.87)"><tspan x="-213.651" y="-495.752" style="Monospace, Bold&quot;;text-align:start;">Cross-Attention Transformer</tspan></text>
    <text xml:space="preserve" x="-231.893" y="-481.441" fill="#fff" stroke="#000" stroke-linejoin="bevel" stroke-width=".794" font-family="Monospace" font-size="4.233" font-weight="400" paint-order="markers stroke fill" style="text-align:center;" text-anchor="middle" transform="translate(248.955 500.87)"><tspan x="-231.893" y="-481.441" style="text-align:center;">prompt tokens</tspan></text>
    <text xml:space="preserve" x="-1.807" y="-471.957" fill="#fff" stroke="#000" stroke-linejoin="bevel" stroke-width=".794" font-family="Monospace" font-size="4.233" font-weight="400" paint-order="markers stroke fill" style="text-align:center;" text-anchor="middle" transform="translate(248.955 500.87)"><tspan x="-1.807" y="-471.957" style="text-align:center;">prompt tokens</tspan></text>
    <text xml:space="preserve" x="-230.618" y="-454.501" fill="#fff" stroke="#000" stroke-linejoin="bevel" stroke-width=".794" font-family="Monospace" font-size="4.233" font-weight="400" paint-order="markers stroke fill" style="text-align:center;" text-anchor="middle" transform="translate(248.955 500.87)"><tspan x="-230.618" y="-454.501" style="text-align:center;">image tokens</tspan></text>
    <text xml:space="preserve" x="-3.057" y="-455.218" fill="#fff" stroke="#000" stroke-linejoin="bevel" stroke-width=".794" font-family="Monospace" font-size="4.233" font-weight="400" paint-order="markers stroke fill" style="text-align:center;" text-anchor="middle" transform="translate(248.955 500.87)"><tspan x="-3.057" y="-455.218" style="text-align:center;">image tokens</tspan></text>
    <path fill="#fff" stroke="#000" stroke-width=".529" d="M167.396 48.654V36.85h8.579v1.087l2.092-1.374-2.092-1.375v1.133h-9.109v12.333h-9.59v.529l10.12.052h95.292v1.088l2.092-1.375-2.092-1.375v1.08z" paint-order="markers stroke fill"/>
    <path fill="#fc0" stroke="#000" stroke-linejoin="round" stroke-width=".467" d="M108.515 28.013h47.158V61.94h-47.158z"/>
    <text xml:space="preserve" x="-133.402" y="-461.029" stroke-opacity=".798" stroke-width=".265" font-family="Monospace" font-size="5.644" font-weight="700" paint-order="markers stroke fill" style="Monospace, Bold&quot;;text-align:center" text-anchor="middle" transform="translate(265.388 500.968)"><tspan x="-133.402" y="-461.029" style="Monospace, Bold&quot;;">Prompt-Image</tspan><tspan x="-133.402" y="-453.974" style="Monospace, Bold&quot;;">Attention</tspan><tspan x="-133.402" y="-446.918" style="Monospace, Bold&quot;;">Block</tspan></text>
    <path fill="#fff" stroke="#000" stroke-width=".529" d="m44.376 50.294 2.093-1.375-2.093-1.374v1.087H.265v.529h44.111zM.265 22.206v-.529h175.71v-1.14l2.092 1.375-2.092 1.375v-1.08h-75.883v8.809h3.567v-1.133l2.092 1.375-2.092 1.374v-1.087h-4.096v-9.339H41.085v8.826h3.304V29.9l2.093 1.375-2.093 1.375v-1.09h-3.304v8.282h3.395v-1.088l2.092 1.375-2.092 1.375v-1.133h-3.925V22.206zm171.617 29.66c0 .075-.03.08.004.049.034-.032.107-.084.2-.145.189-.122.46-.286.74-.512.557-.45 1.147-1.18 1.173-2.332v-.012c-.026-1.152-.616-1.883-1.174-2.334-.279-.225-.55-.389-.738-.511a1.86 1.86 0 0 1-.201-.145c-.034-.031-.004-.026-.004.049l-.003-2.097h4.096v1.133l2.092-1.375-2.092-1.375v1.088h-4.625v.543l.002 2.083c0 .169.097.269.176.342.08.072.169.131.27.197.202.131.449.283.693.48.488.395.953.95.977 1.928-.024.978-.489 1.534-.977 1.928-.244.198-.491.347-.693.478a2.07 2.07 0 0 0-.27.198c-.08.072-.176.173-.176.341l-.002 14.91h-70.73v-8.81h3.567V59.1l2.092-1.376-2.092-1.374v1.087h-4.096v9.339H41.085V57.97h3.304v1.134l2.093-1.375-2.093-1.375v1.087h-3.834v9.334H.265v.529l171.614.052.003-15.49zm-67.678-10.382 2.092-1.375-2.092-1.375v1.087h-5.039v.53h5.039z" paint-order="markers stroke fill"/>
    <path fill="#fff" stroke="#000" stroke-width=".529" d="m103.893 50.294 2.093-1.375-2.093-1.374v1.087h-5.038v.529h5.038zm158.795-16.119 2.092-1.376-2.092-1.374v1.087h-42.08v.53h42.08z" paint-order="markers stroke fill"/>
    <text xml:space="preserve" x="-230.682" y="-436.493" fill="#fff" stroke="#000" stroke-linejoin="bevel" stroke-width=".794" font-family="Monospace" font-size="4.233" font-weight="400" paint-order="markers stroke fill" style="text-align:center;" text-anchor="middle" transform="translate(248.955 500.87)"><tspan x="-230.682" y="-436.493" style="text-align:center;">image posenc</tspan></text>
    <path fill="#fff" stroke="#000" stroke-width=".529" d="M157.276 39.84v.528l5.203.052V29.43h13.496v1.088l2.092-1.375-2.092-1.375v1.133h-14.026V39.84z" paint-order="markers stroke fill"/>
    <path fill="none" stroke="#fc0" stroke-width="2.105" d="M36.246 7.309h191.692v75.514H36.246z" paint-order="stroke fill markers"/>
  </g>
</svg>
