<svg xmlns="http://www.w3.org/2000/svg" xml:space="preserve" width="393.5" height="203.646" viewBox="0 0 104.114 53.881">
  <text xml:space="preserve" x="-638.968" y="-784.275" fill="#fff" stroke="#000" stroke-linecap="square" stroke-opacity=".798" stroke-width="1.058" font-family="Monospace" font-size="5.644" font-weight="700" paint-order="markers stroke fill" style="Monospace, Bold&quot;;text-align:start;" text-anchor="middle" transform="translate(693.605 789.393)"><tspan x="-638.968" y="-784.275" style="Monospace, Bold&quot;;text-align:start;">Deltas Matrices</tspan></text>
  <path fill="#333" d="M9.26 16.575h35.719v9.26H9.26zm0-9.261h35.719v9.26H9.26zM0 25.835h9.26v27.781H0z"/>
  <text xml:space="preserve" x="-1596.606" y="-436.563" fill="#fff" stroke-linecap="square" stroke-opacity=".798" stroke-width="1.058" font-family="Monospace" font-size="5.644" font-weight="700" paint-order="markers stroke fill" style="Monospace, Bold&quot;;text-align:start;" text-anchor="middle" transform="translate(1623.726 450.468)"><tspan x="-1596.606" y="-436.563" style="Monospace, Bold&quot;;text-align:start;">x index</tspan></text>
  <path fill="#e0e0e0" d="M9.26 16.575h35.719v.265H9.26z"/>
  <path fill="#666" d="M9.26 25.835h35.719v9.26H9.26z"/>
  <path fill="#e0e0e0" d="M0 25.835h45.244v.265H0zm0 27.781h45.244v.265H0z"/>
  <path fill="#666" d="M9.26 35.095h35.719v9.26H9.26z"/>
  <path fill="#e0e0e0" d="M0 35.095h45.109v.265H0z"/>
  <path fill="#666" d="M9.26 44.356h35.719v9.26H9.26z"/>
  <path fill="#e0e0e0" d="M0 44.356h45.109v.265H0z"/>
  <text x="-1605.436" y="-418.719" fill="#fff" stroke-width=".265" font-family="Monospace-Regular, Monospace" font-size="3.528" style="text-align:center" text-anchor="middle" transform="translate(1623.726 450.468)"><tspan x="-1608.513" y="-418.719" style="text-align:center">0</tspan></text>
  <text x="-1605.546" y="-409.458" fill="#fff" stroke-width=".265" font-family="Monospace-Regular, Monospace" font-size="3.528" style="text-align:center" text-anchor="middle" transform="translate(1623.726 450.468)"><tspan x="-1608.605" y="-409.458" style="text-align:center">1</tspan></text>
  <text x="-1605.411" y="-400.198" fill="#fff" stroke-width=".265" font-family="Monospace-Regular, Monospace" font-size="3.528" style="text-align:center" text-anchor="middle" transform="translate(1623.726 450.468)"><tspan x="-1608.494" y="-400.198" style="text-align:center">2</tspan></text>
  <text x="-1593.697" y="-418.719" fill="#fff" stroke-width=".265" font-family="Monospace-Regular, Monospace" font-size="3.528" style="text-align:center" text-anchor="middle" transform="translate(1623.726 450.468)"><tspan x="-1596.793" y="-418.719" style="text-align:center">-1</tspan></text>
  <text x="-1593.479" y="-409.458" fill="#fff" stroke-width=".265" font-family="Monospace-Regular, Monospace" font-size="3.528" style="text-align:center" text-anchor="middle" transform="translate(1623.726 450.468)"><tspan x="-1596.606" y="-409.458" style="text-align:center">0</tspan></text>
  <text x="-1593.608" y="-400.198" fill="#fff" stroke-width=".265" font-family="Monospace-Regular, Monospace" font-size="3.528" style="text-align:center" text-anchor="middle" transform="translate(1623.726 450.468)"><tspan x="-1596.698" y="-400.198" style="text-align:center">1</tspan></text>
  <path fill="#e0e0e0" d="M21.167 16.575h.265v37.042h-.265z"/>
  <text x="-1581.756" y="-418.719" fill="#fff" stroke-width=".265" font-family="Monospace-Regular, Monospace" font-size="3.528" style="text-align:center" text-anchor="middle" transform="translate(1623.726 450.468)"><tspan x="-1584.857" y="-418.719" style="text-align:center">-2</tspan></text>
  <text x="-1581.773" y="-409.458" fill="#fff" stroke-width=".265" font-family="Monospace-Regular, Monospace" font-size="3.528" style="text-align:center" text-anchor="middle" transform="translate(1623.726 450.468)"><tspan x="-1584.887" y="-409.458" style="text-align:center">-1</tspan></text>
  <text x="-1581.565" y="-400.198" fill="#fff" stroke-width=".265" font-family="Monospace-Regular, Monospace" font-size="3.528" style="text-align:center" text-anchor="middle" transform="translate(1623.726 450.468)"><tspan x="-1584.7" y="-400.198" style="text-align:center">0</tspan></text>
  <path fill="#e0e0e0" d="M33.073 16.575h.265v37.042h-.265zm11.906-9.261h.265v46.302h-.265z"/>
  <text x="-1606.708" y="-427.43" fill="#fff" stroke-width=".265" font-family="Monospace-Bold, Monospace" font-size="4.939" style="text-align:center" text-anchor="middle" transform="translate(1623.726 450.468)"><tspan x="-1608.513" y="-427.43" font-weight="700" style="text-align:center">0</tspan></text>
  <text x="-1594.845" y="-427.463" fill="#fff" stroke-width=".265" font-family="Monospace-Bold, Monospace" font-size="4.939" style="text-align:center" text-anchor="middle" transform="translate(1623.726 450.468)"><tspan x="-1596.715" y="-427.463" font-weight="700" style="text-align:center">1</tspan></text>
  <text x="-1617.226" y="-418.203" fill="#fff" stroke-width=".265" font-family="Monospace-Bold, Monospace" font-size="4.939" style="text-align:center" text-anchor="middle" transform="translate(1623.726 450.468)"><tspan x="-1619.096" y="-418.203" font-weight="700" style="text-align:center">0</tspan></text>
  <text x="-1583.741" y="-427.465" fill="#fff" stroke-width=".265" font-family="Monospace-Bold, Monospace" font-size="4.939" style="text-align:center" text-anchor="middle" transform="translate(1623.726 450.468)"><tspan x="-1584.634" y="-427.465" font-weight="700" style="text-align:center">2</tspan></text>
  <text x="-1618.312" y="-408.945" fill="#fff" stroke-width=".265" font-family="Monospace-Bold, Monospace" font-size="4.939" style="text-align:center" text-anchor="middle" transform="translate(1623.726 450.468)"><tspan x="-1619.204" y="-408.945" font-weight="700" style="text-align:center">1</tspan></text>
  <text x="-1616.948" y="-399.682" fill="#fff" stroke-width=".265" font-family="Monospace-Bold, Monospace" font-size="4.939" style="text-align:center" text-anchor="middle" transform="translate(1623.726 450.468)"><tspan x="-1619.029" y="-399.682" font-weight="700" style="text-align:center">2</tspan></text>
  <path fill="#e0e0e0" d="M9.26 7.314h.265v46.302H9.26zM0 25.835h.265v27.781H0z"/>
  <path fill="#e0e0e0" d="M9.26 7.314h35.719v.265H9.26z"/>
  <path fill="#333" d="M77.39 16.575h26.459v9.26H77.39zm0-9.26h26.459v9.26H77.39zm-9.26 18.521h9.26v18.52h-9.26z"/>
  <text xml:space="preserve" x="-1600.977" y="-356.24" fill="#fff" stroke-linecap="square" stroke-opacity=".798" stroke-width="1.058" font-family="Monospace" font-size="5.644" font-weight="700" paint-order="markers stroke fill" style="Monospace, Bold&quot;;text-align:start;" text-anchor="middle" transform="translate(1691.592 370.146)"><tspan x="-1600.977" y="-356.24" style="Monospace, Bold&quot;;text-align:start;">y index</tspan></text>
  <path fill="#e0e0e0" d="M77.635 16.575h26.458v.265H77.635z"/>
  <path fill="#666" d="M77.39 25.836h26.459v9.26H77.39z"/>
  <path fill="#e0e0e0" d="M68.13 25.836h35.72v.265H68.13z"/>
  <path fill="#666" d="M77.39 35.096h26.459v9.26H77.39z"/>
  <path fill="#e0e0e0" d="M68.13 35.096h35.72v.265H68.13zm0 9.261h35.72v.265H68.13z"/>
  <text x="-1604.51" y="-338.396" fill="#fff" stroke-width=".265" font-family="Monospace-Regular, Monospace" font-size="3.528" style="text-align:center" text-anchor="middle" transform="translate(1691.592 370.146)"><tspan x="-1607.586" y="-338.396" style="text-align:center">0</tspan></text>
  <text x="-1604.62" y="-329.135" fill="#fff" stroke-width=".265" font-family="Monospace-Regular, Monospace" font-size="3.528" style="text-align:center" text-anchor="middle" transform="translate(1691.592 370.146)"><tspan x="-1607.679" y="-329.135" style="text-align:center">1</tspan></text>
  <text x="-1591.449" y="-338.396" fill="#fff" stroke-width=".265" font-family="Monospace-Regular, Monospace" font-size="3.528" style="text-align:center" text-anchor="middle" transform="translate(1691.592 370.146)"><tspan x="-1594.544" y="-338.396" style="text-align:center">-1</tspan></text>
  <text x="-1591.23" y="-329.135" fill="#fff" stroke-width=".265" font-family="Monospace-Regular, Monospace" font-size="3.528" style="text-align:center" text-anchor="middle" transform="translate(1691.592 370.146)"><tspan x="-1594.357" y="-329.135" style="text-align:center">0</tspan></text>
  <path fill="#e0e0e0" d="M90.62 16.575h.265v27.78h-.265zm13.229-9.26h.265V44.62h-.265z"/>
  <text x="-1605.782" y="-347.108" fill="#fff" stroke-width=".265" font-family="Monospace-Bold, Monospace" font-size="4.939" style="text-align:center" text-anchor="middle" transform="translate(1691.592 370.146)"><tspan x="-1607.586" y="-347.108" font-weight="700" style="text-align:center">0</tspan></text>
  <text x="-1592.597" y="-347.14" fill="#fff" stroke-width=".265" font-family="Monospace-Bold, Monospace" font-size="4.939" style="text-align:center" text-anchor="middle" transform="translate(1691.592 370.146)"><tspan x="-1594.466" y="-347.14" font-weight="700" style="text-align:center">1</tspan></text>
  <text x="-1616.962" y="-337.88" fill="#fff" stroke-width=".265" font-family="Monospace-Bold, Monospace" font-size="4.939" style="text-align:center" text-anchor="middle" transform="translate(1691.592 370.146)"><tspan x="-1618.831" y="-337.88" font-weight="700" style="text-align:center">0</tspan></text>
  <text x="-1618.047" y="-328.622" fill="#fff" stroke-width=".265" font-family="Monospace-Bold, Monospace" font-size="4.939" style="text-align:center" text-anchor="middle" transform="translate(1691.592 370.146)"><tspan x="-1618.94" y="-328.622" font-weight="700" style="text-align:center">1</tspan></text>
  <path fill="#e0e0e0" d="M77.39 7.315h.266v37.042h-.265zm-9.26 18.521h.266v18.52h-.265z"/>
  <path fill="#e0e0e0" d="M77.635 7.315h26.458v.265H77.635z"/>
</svg>
