<svg xmlns="http://www.w3.org/2000/svg" xml:space="preserve" width="440.279" height="325.22" viewBox="0 0 116.49 86.048">
  <g stroke-linecap="square">
    <g stroke="#000" stroke-linejoin="round" stroke-width=".529">
      <g fill="#5aa02c">
        <path d="m11.237 54.638.07-11.096 6.882-6.068v11.112z"/>
        <path d="M11.237 54.638.265 51.482V40.373l11.042 3.17zm.07-11.096L.265 40.373l7.034-6.024 10.89 3.125z"/>
      </g>
      <g fill="#8d5fd3">
        <path d="m18.307 37.512.07-11.096 6.882-6.068v11.111z"/>
        <path d="M18.307 37.512 7.334 34.355V23.247l11.043 3.169zm.07-11.096-11.043-3.17 7.035-6.024 10.89 3.126z"/>
      </g>
      <g fill="#c83737">
        <path d="m11.307 43.542.07-11.096 6.882-6.068V37.49z"/>
        <path d="M11.307 43.542.334 40.386V29.277l11.043 3.17zm.07-11.096L.334 29.277l7.035-6.024 10.89 3.125z"/>
      </g>
      <g fill="#c83737">
        <path d="m40.204 54.912.07-11.097 6.882-6.067v11.111z"/>
        <path d="m40.204 54.912-10.973-3.157V40.647l11.043 3.168z"/>
        <path d="M40.274 43.815 29.23 40.647l7.035-6.025 10.89 3.126z"/>
      </g>
      <path fill="#5aa02c" d="m22.245 57.801.07-11.096 6.882-6.068V51.75zm0 0-10.973-3.156V43.536l11.042 3.17zm.069-11.096-11.042-3.169 7.035-6.024 10.89 3.125z"/>
      <g fill="#5aa02c">
        <path d="m33.252 60.964.07-11.096 6.882-6.068v11.112z"/>
        <path d="M33.252 60.964 22.28 57.807V46.7l11.043 3.169zm.07-11.096-11.043-3.17 7.035-6.024 10.89 3.126z"/>
      </g>
      <g fill="#8d5fd3">
        <path d="m29.314 40.674.07-11.096 6.882-6.068v11.112z"/>
        <path d="m29.314 40.674-10.972-3.156V26.409l11.042 3.17z"/>
        <path d="M29.384 29.578 18.342 26.41l7.035-6.024 10.89 3.125z"/>
      </g>
      <g fill="#8d5fd3">
        <path d="m40.204 43.8.07-11.096 6.882-6.068v11.112z"/>
        <path d="m40.204 43.8-10.973-3.157V29.535l11.043 3.169zm.07-11.096-11.043-3.17 7.035-6.024 10.89 3.126z"/>
      </g>
      <g fill="#c83737">
        <path d="m22.314 46.705.07-11.096 6.882-6.068v11.112z"/>
        <path d="m22.314 46.705-10.972-3.157V32.44l11.042 3.169z"/>
        <path d="M22.384 35.609 11.342 32.44l7.035-6.024 10.89 3.125z"/>
      </g>
      <path fill="#c83737" d="m33.322 49.868.07-11.096 6.882-6.068v11.111zm0 0L22.349 46.71V35.603l11.042 3.169zm.07-11.096-11.043-3.17 7.035-6.024 10.89 3.126z"/>
    </g>
    <g stroke="#000" stroke-linejoin="round" stroke-width=".529">
      <g fill="#5aa02c">
        <path d="m93.15 76.047.069-11.096 6.882-6.068v11.111zm0 0L82.176 72.89V61.782l11.042 3.169z"/>
        <path d="m93.219 64.95-11.042-3.168 7.035-6.025 10.89 3.126z"/>
      </g>
      <g fill="#c83737">
        <path d="m104.046 79.182.07-11.096 6.881-6.068v11.111zm0 0-10.973-3.157V64.917l11.042 3.169z"/>
        <path d="m104.115 68.086-11.042-3.17 7.035-6.024 10.89 3.126z"/>
      </g>
      <g fill="#5aa02c">
        <path d="m93.219 64.95.07-11.095 6.882-6.068v11.111zm0 0-10.973-3.156V50.686l11.043 3.169z"/>
        <path d="m93.289 53.855-11.043-3.17 7.035-6.024 10.89 3.126z"/>
      </g>
      <g fill="#5aa02c">
        <path d="m93.254 53.848.07-11.096 6.882-6.068v11.112zm0 0L82.28 50.692V39.583l11.043 3.17z"/>
        <path d="M93.324 42.752 82.28 39.583l7.035-6.024 10.89 3.125z"/>
      </g>
      <g fill="#c83737">
        <path d="m104.115 68.086.07-11.097 6.882-6.068v11.112zm0 0-10.972-3.157V53.82l11.042 3.168z"/>
        <path d="m104.185 56.99-11.042-3.17 7.035-6.024 10.89 3.125z"/>
      </g>
      <g fill="#c83737">
        <path d="m104.185 56.99.07-11.097 6.882-6.068v11.112z"/>
        <path d="m104.185 56.99-10.973-3.157V42.724l11.043 3.17z"/>
        <path d="m104.255 45.893-11.043-3.169 7.035-6.024 10.89 3.125z"/>
      </g>
      <g fill="#c83737">
        <path d="m93.324 42.752.07-11.096 6.881-6.068V36.7zm0 0L82.35 39.596V28.487l11.042 3.17z"/>
        <path d="m93.393 31.656-11.042-3.169 7.035-6.024 10.89 3.125z"/>
      </g>
      <path fill="#8d5fd3" d="m104.255 45.893.07-11.096 6.882-6.068v11.112zm0 0-10.973-3.156V31.628l11.042 3.17zm.069-11.096-11.042-3.169 7.035-6.024 10.89 3.125z"/>
      <g fill="#c83737">
        <path d="m93.393 31.656.07-11.096 6.882-6.068v11.112z"/>
        <path d="M93.393 31.656 82.421 28.5V17.39l11.042 3.17z"/>
        <path d="m93.463 20.56-11.042-3.169 7.035-6.024 10.89 3.125z"/>
      </g>
      <g fill="#8d5fd3">
        <path d="m104.324 34.797.07-11.096 6.882-6.068v11.112z"/>
        <path d="m104.324 34.797-10.972-3.156V20.532l11.042 3.17zm.07-11.096-11.042-3.169 7.035-6.024 10.89 3.125z"/>
      </g>
      <g fill="#c83737">
        <path d="m93.428 20.554.07-11.096 6.882-6.068v11.112z"/>
        <path d="m93.428 20.554-10.972-3.157V6.29l11.042 3.169zm.07-11.096L82.456 6.289 89.49.265l10.89 3.125z"/>
      </g>
      <g fill="#8d5fd3">
        <path d="m104.394 23.701.07-11.096 6.882-6.068V17.65z"/>
        <path d="m104.394 23.701-10.972-3.156V9.436l11.042 3.169z"/>
        <path d="M104.464 12.605 93.422 9.436l7.034-6.024 10.89 3.125z"/>
      </g>
    </g>
    <path fill="#fff" stroke="#000" stroke-width=".529" d="m70.974 40.468 2.092-1.375-2.092-1.375v1.087h-16.8v.53h16.8z" paint-order="markers stroke fill"/>
    <text xml:space="preserve" x="-111.881" y="-873.26" fill="#f60" stroke-width=".265" font-family="Monospace" font-size="4.233" paint-order="markers stroke fill" style="text-align:center" text-anchor="middle" transform="translate(175.597 919.335)"><tspan x="-111.881" y="-873.26" style="text-align:center">flatten</tspan></text>
    <text xml:space="preserve" x="-151.666" y="-852.688" fill="#f60" stroke-width=".265" font-family="Monospace" font-size="4.233" paint-order="markers stroke fill" style="text-align:center" text-anchor="middle" transform="translate(175.597 919.335)"><tspan x="-151.666" y="-852.688" style="text-align:center">shape: (H, W, H)</tspan></text>
    <text xml:space="preserve" x="-78.615" y="-834.168" fill="#f60" stroke-width=".265" font-family="Monospace" font-size="4.233" paint-order="markers stroke fill" style="text-align:center" text-anchor="middle" transform="translate(175.597 919.335)"><tspan x="-78.615" y="-834.168" style="text-align:center">shape: (N, H, 1)</tspan></text>
    <text xml:space="preserve" x="-151.797" y="-905.271" fill="#fff" stroke="#000" stroke-width=".794" font-family="Monospace" font-size="4.233" font-weight="400" paint-order="markers stroke fill" style="text-align:center;" text-anchor="middle" transform="translate(175.597 919.335)"><tspan x="-151.797" y="-905.271" style="text-align:center;">Q<tspan baseline-shift="sub" font-size="65%">i</tspan> * ∆y encodings</tspan></text>
  </g>
</svg>
