<svg xmlns="http://www.w3.org/2000/svg" xml:space="preserve" width="560.294" height="213.683" viewBox="0 0 148.244 56.537">
  <text xml:space="preserve" x="-646.241" y="-684.956" fill="#fff" stroke="#000" stroke-linecap="square" stroke-width=".794" font-family="Monospace" font-size="4.233" font-weight="400" paint-order="markers stroke fill" style="text-align:center;" text-anchor="middle" transform="translate(781.74 704.399)"><tspan x="-646.241" y="-684.956" style="text-align:center;">Duplicated</tspan><tspan x="-646.241" y="-679.664" style="text-align:center;">(height)</tspan></text>
  <g paint-order="markers stroke fill">
    <path fill="#c83737" d="M-755.066-596.083h11.906v9.26h-11.906zm11.907 9.261h11.906v9.26h-11.906zm11.906 9.26h11.906v9.26h-11.906z" style="" transform="translate(764.326 614.603)"/>
    <path fill="#5aa02c" d="M-755.066-586.822h11.906v9.26h-11.906z" style="" transform="translate(764.326 614.603)"/>
    <path fill="#06f" d="M-755.066-577.562h11.906v9.26h-11.906z" style="" transform="translate(764.326 614.603)"/>
    <path fill="#5aa02c" d="M-743.159-577.562h11.906v9.26h-11.906z" style="" transform="translate(764.326 614.603)"/>
    <path fill="#8d5fd3" d="M-743.159-596.083h11.906v9.26h-11.906zm11.906 9.261h11.906v9.26h-11.906z" style="" transform="translate(764.326 614.603)"/>
    <path fill="#fc0" d="M-731.253-596.083h11.906v9.26h-11.906z" style="" transform="translate(764.326 614.603)"/>
  </g>
  <path fill="#333" d="M9.26 9.26h35.719v9.26H9.26zm0-9.26h35.719v9.26H9.26zM0 18.52h9.26v27.782H0z"/>
  <text xml:space="preserve" x="-739.248" y="-647.974" fill="#fff" stroke-linecap="square" stroke-opacity=".798" stroke-width="1.058" font-family="Monospace" font-size="5.644" font-weight="700" paint-order="markers stroke fill" style="Monospace, Bold&quot;;text-align:start;" text-anchor="middle" transform="translate(766.368 654.566)"><tspan x="-739.248" y="-647.974" style="Monospace, Bold&quot;;text-align:start;">x index</tspan></text>
  <path fill="#e0e0e0" d="M9.26 9.26h35.719v.266H9.26zM0 18.52h45.244v.266H0zm0 27.782h45.244v.265H0zm0-18.52h45.109v.265H0zm0 9.26h45.109v.265H0z"/>
  <text x="-748.078" y="-630.13" fill="#fff" stroke-width=".265" font-family="Monospace-Regular, Monospace" font-size="3.528" style="text-align:center" text-anchor="middle" transform="translate(766.368 654.566)"><tspan x="-751.155" y="-630.13" style="text-align:center">0</tspan></text>
  <text x="-748.188" y="-620.87" fill="#fff" stroke-width=".265" font-family="Monospace-Regular, Monospace" font-size="3.528" style="text-align:center" text-anchor="middle" transform="translate(766.368 654.566)"><tspan x="-751.247" y="-620.87" style="text-align:center">1</tspan></text>
  <text x="-748.054" y="-611.61" fill="#fff" stroke-width=".265" font-family="Monospace-Regular, Monospace" font-size="3.528" style="text-align:center" text-anchor="middle" transform="translate(766.368 654.566)"><tspan x="-751.136" y="-611.61" style="text-align:center">2</tspan></text>
  <text x="-736.34" y="-630.13" fill="#fff" stroke-width=".265" font-family="Monospace-Regular, Monospace" font-size="3.528" style="text-align:center" text-anchor="middle" transform="translate(766.368 654.566)"><tspan x="-739.435" y="-630.13" style="text-align:center">-1</tspan></text>
  <text x="-736.121" y="-620.87" fill="#fff" stroke-width=".265" font-family="Monospace-Regular, Monospace" font-size="3.528" style="text-align:center" text-anchor="middle" transform="translate(766.368 654.566)"><tspan x="-739.248" y="-620.87" style="text-align:center">0</tspan></text>
  <text x="-736.25" y="-611.61" fill="#fff" stroke-width=".265" font-family="Monospace-Regular, Monospace" font-size="3.528" style="text-align:center" text-anchor="middle" transform="translate(766.368 654.566)"><tspan x="-739.34" y="-611.61" style="text-align:center">1</tspan></text>
  <path fill="#e0e0e0" d="M21.167 9.26h.265v37.043h-.265z"/>
  <text x="-724.398" y="-630.13" stroke-width=".265" font-family="Monospace-Regular, Monospace" font-size="3.528" style="text-align:center" text-anchor="middle" transform="translate(766.368 654.566)"><tspan x="-727.499" y="-630.13" style="text-align:center">-2</tspan></text>
  <text x="-724.415" y="-620.87" fill="#fff" stroke-width=".265" font-family="Monospace-Regular, Monospace" font-size="3.528" style="text-align:center" text-anchor="middle" transform="translate(766.368 654.566)"><tspan x="-727.529" y="-620.87" style="text-align:center">-1</tspan></text>
  <text x="-724.208" y="-611.61" fill="#fff" stroke-width=".265" font-family="Monospace-Regular, Monospace" font-size="3.528" style="text-align:center" text-anchor="middle" transform="translate(766.368 654.566)"><tspan x="-727.342" y="-611.61" style="text-align:center">0</tspan></text>
  <path fill="#e0e0e0" d="M33.073 9.26h.265v37.043h-.265zM44.979 0h.265v46.302h-.265z"/>
  <text x="-749.35" y="-638.842" fill="#fff" stroke-width=".265" font-family="Monospace-Bold, Monospace" font-size="4.939" style="text-align:center" text-anchor="middle" transform="translate(766.368 654.566)"><tspan x="-751.155" y="-638.842" font-weight="700" style="text-align:center">0</tspan></text>
  <text x="-737.488" y="-638.875" fill="#fff" stroke-width=".265" font-family="Monospace-Bold, Monospace" font-size="4.939" style="text-align:center" text-anchor="middle" transform="translate(766.368 654.566)"><tspan x="-739.357" y="-638.875" font-weight="700" style="text-align:center">1</tspan></text>
  <text x="-759.869" y="-629.614" fill="#fff" stroke-width=".265" font-family="Monospace-Bold, Monospace" font-size="4.939" style="text-align:center" text-anchor="middle" transform="translate(766.368 654.566)"><tspan x="-761.738" y="-629.614" font-weight="700" style="text-align:center">0</tspan></text>
  <text x="-726.383" y="-638.877" fill="#fff" stroke-width=".265" font-family="Monospace-Bold, Monospace" font-size="4.939" style="text-align:center" text-anchor="middle" transform="translate(766.368 654.566)"><tspan x="-727.276" y="-638.877" font-weight="700" style="text-align:center">2</tspan></text>
  <text x="-760.954" y="-620.356" fill="#fff" stroke-width=".265" font-family="Monospace-Bold, Monospace" font-size="4.939" style="text-align:center" text-anchor="middle" transform="translate(766.368 654.566)"><tspan x="-761.846" y="-620.356" font-weight="700" style="text-align:center">1</tspan></text>
  <text x="-759.59" y="-611.094" fill="#fff" stroke-width=".265" font-family="Monospace-Bold, Monospace" font-size="4.939" style="text-align:center" text-anchor="middle" transform="translate(766.368 654.566)"><tspan x="-761.672" y="-611.094" font-weight="700" style="text-align:center">2</tspan></text>
  <path fill="#e0e0e0" d="M9.26 0h.265v46.302H9.26zM0 18.52h.265v27.782H0z"/>
  <path fill="#e0e0e0" d="M9.26 0h35.719v.265H9.26z"/>
  <g stroke="#000" stroke-linecap="square" stroke-width=".529">
    <path fill="#fff" d="m119.402 27.834 1.375 2.092 1.374-2.092h-1.087V11.035h-.529v16.8z" paint-order="markers stroke fill"/>
    <g fill="#fc0" stroke-linejoin="round">
      <path d="m87.387 21.07.07-11.097 6.882-6.068v11.112z"/>
      <path d="m87.387 21.07-10.972-3.157V6.805l11.042 3.168z"/>
      <path d="M87.457 9.973 76.415 6.805 83.45.78l10.89 3.125z"/>
    </g>
    <g fill="#8d5fd3" stroke-linejoin="round">
      <path d="m98.43 24.238.07-11.096 6.882-6.068v11.112zm0 0-10.973-3.156V9.973l11.042 3.17z"/>
      <path d="M98.5 13.142 87.456 9.973l7.035-6.024 10.89 3.125z"/>
    </g>
    <g fill="#8d5fd3" stroke-linejoin="round">
      <path d="m80.54 27.144.07-11.097 6.882-6.067v11.11z"/>
      <path d="m80.54 27.144-10.973-3.157V12.879l11.043 3.168z"/>
      <path d="M80.61 16.047 69.567 12.88l7.035-6.025 10.89 3.126z"/>
    </g>
    <path fill="#c83737" stroke-linejoin="round" d="m73.547 44.292.07-11.096 6.882-6.068V38.24zm0 0-10.973-3.157V30.027l11.042 3.169zm.069-11.096-11.042-3.169 7.035-6.024 10.89 3.125z"/>
    <g fill="#c83737" stroke-linejoin="round">
      <path d="m73.581 33.19.07-11.096 6.882-6.068v11.111z"/>
      <path d="M73.581 33.19 62.61 30.033V18.925l11.042 3.169z"/>
      <path d="m73.651 22.094-11.042-3.17 7.035-6.024 10.89 3.126z"/>
    </g>
    <g fill="#5aa02c" stroke-linejoin="round">
      <path d="m84.513 47.44.07-11.097 6.881-6.068v11.112zm0 0L73.54 44.282V33.174l11.042 3.17z"/>
      <path d="M84.582 36.343 73.54 33.174l7.035-6.024 10.89 3.125z"/>
    </g>
    <g fill="#c83737" stroke-linejoin="round">
      <path d="m91.547 30.306.07-11.096 6.882-6.068v11.112z"/>
      <path d="M91.547 30.306 80.575 27.15V16.04l11.042 3.17z"/>
      <path d="m91.617 19.21-11.042-3.169 7.035-6.024 10.89 3.125z"/>
    </g>
    <g fill="#c83737" stroke-linejoin="round">
      <path d="m109.472 38.52.07-11.095 6.882-6.068v11.111z"/>
      <path d="m109.472 38.52-10.973-3.156V24.256l11.043 3.169zm.07-11.095-11.043-3.17 7.035-6.024 10.89 3.126z"/>
    </g>
    <g fill="#5aa02c" stroke-linejoin="round">
      <path d="m102.402 44.536.07-11.096 6.882-6.068v11.111z"/>
      <path d="M102.402 44.536 91.43 41.379V30.271l11.042 3.169z"/>
      <path d="M102.472 33.44 91.43 30.27l7.034-6.024 10.89 3.126z"/>
    </g>
    <g fill="#5aa02c" stroke-linejoin="round">
      <path d="m84.547 36.337.07-11.096 6.882-6.068v11.112z"/>
      <path d="M84.547 36.337 73.575 33.18V22.072l11.042 3.169zm.07-11.097-11.042-3.168 7.035-6.025 10.89 3.126z"/>
    </g>
    <g fill="#06f" stroke-linejoin="round">
      <path d="m95.479 50.588.07-11.096 6.881-6.068v11.112zm0 0-10.973-3.157V36.323l11.042 3.169z"/>
      <path d="m95.548 39.492-11.042-3.169 7.035-6.024 10.89 3.125z"/>
    </g>
    <g fill="#c83737" stroke-linejoin="round">
      <path d="m109.472 27.409.07-11.096 6.882-6.068v11.112z"/>
      <path d="m109.472 27.409-10.973-3.157V13.144l11.043 3.169zm.07-11.096-11.043-3.169 7.035-6.025 10.89 3.126z"/>
    </g>
    <g fill="#5aa02c" stroke-linejoin="round">
      <path d="m102.472 33.44.07-11.097 6.882-6.068v11.112z"/>
      <path d="m102.472 33.44-10.973-3.157V19.175l11.043 3.168z"/>
      <path d="m102.542 22.343-11.043-3.168 7.035-6.025 10.89 3.125z"/>
    </g>
    <g fill="#06f" stroke-linejoin="round">
      <path d="m95.513 39.484.07-11.096 6.882-6.068v11.112z"/>
      <path d="m95.513 39.484-10.972-3.157V25.22l11.042 3.169zm.07-11.096-11.042-3.169 7.035-6.024 10.89 3.125z"/>
    </g>
  </g>
  <text xml:space="preserve" x="-752.182" y="-653.558" fill="#f60" stroke-linecap="square" stroke-width=".265" font-family="Monospace" font-size="4.233" paint-order="markers stroke fill" style="text-align:center" text-anchor="middle" transform="translate(781.74 704.399)"><tspan x="-752.182" y="-653.558" style="text-align:center">shape: (W, W)</tspan></text>
  <text xml:space="preserve" x="-680.719" y="-648.742" fill="#f60" stroke-linecap="square" stroke-width=".265" font-family="Monospace" font-size="4.233" paint-order="markers stroke fill" style="text-align:center" text-anchor="middle" transform="translate(781.74 704.399)"><tspan x="-680.719" y="-648.742" style="text-align:center">shape: (H*, W, W)</tspan></text>
</svg>
