<svg xmlns="http://www.w3.org/2000/svg" width="570" height="203.76" viewBox="0 0 150.813 53.912">
  <text xml:space="preserve" x="-1001.772" y="-351.454" fill="#fff" stroke="#000" stroke-linecap="square" stroke-opacity=".798" stroke-width="1.058" font-family="Monospace" font-size="5.644" font-weight="700" paint-order="markers stroke fill" style="Monospace, Bold&quot;;text-align:start;" text-anchor="middle" transform="translate(1086.622 356.572)"><tspan x="-1001.772" y="-351.454" style="Monospace, Bold&quot;;text-align:start;">Pair Encodings Matrix</tspan></text>
  <path fill="#333" d="M18.52 16.606h132.293v9.26H18.52zm0-9.261h132.293v9.26H18.52zM0 25.866h9.26v27.78H0zm9.26 0h9.26v27.78H9.26z"/>
  <text xml:space="preserve" x="-1001.871" y="-342.636" fill="#fff" stroke-linecap="square" stroke-opacity=".798" stroke-width="1.058" font-family="Monospace" font-size="5.644" font-weight="700" paint-order="markers stroke fill" style="Monospace, Bold&quot;;text-align:start;" text-anchor="middle" transform="translate(1086.622 356.572)"><tspan x="-1001.871" y="-342.636" style="Monospace, Bold&quot;;text-align:start;">∆x</tspan></text>
  <text xml:space="preserve" x="-1081.905" y="-315.439" fill="#fff" stroke-linecap="square" stroke-opacity=".798" stroke-width="1.058" font-family="Monospace" font-size="5.644" font-weight="700" paint-order="markers stroke fill" style="Monospace, Bold&quot;;text-align:start;" text-anchor="middle" transform="translate(1086.622 356.572)"><tspan x="-1081.905" y="-315.439" style="Monospace, Bold&quot;;text-align:start;">∆y</tspan></text>
  <path fill="#e0e0e0" d="M18.52 16.606h132.293v.265H18.52z"/>
  <path fill="#666" d="M18.52 25.866h132.293v9.26H18.52z"/>
  <path fill="#e0e0e0" d="M0 25.866h150.813v.265H0zm0 27.781h150.813v.265H0z"/>
  <path fill="#666" d="M18.52 35.126h132.293v9.26H18.52z"/>
  <path fill="#e0e0e0" d="M9.26 35.126h141.553v.265H9.26z"/>
  <path fill="#666" d="M18.52 44.387h132.293v9.26H18.52z"/>
  <path fill="#e0e0e0" d="M9.26 44.387h141.553v.265H9.26z"/>
  <text x="-1051.874" y="-324.792" fill="#fff" stroke-width=".265" font-family="Monospace-Regular, Monospace" font-size="3.528" style="text-align:center" text-anchor="middle" transform="translate(1086.622 356.572)"><tspan x="-1054.951" y="-324.792" style="text-align:center">17</tspan></text>
  <text x="-1051.912" y="-315.531" fill="#fff" stroke-width=".265" font-family="Monospace-Regular, Monospace" font-size="3.528" style="text-align:center" text-anchor="middle" transform="translate(1086.622 356.572)"><tspan x="-1054.971" y="-315.531" style="text-align:center">18</tspan></text>
  <text x="-1051.882" y="-306.271" fill="#fff" stroke-width=".265" font-family="Monospace-Regular, Monospace" font-size="3.528" style="text-align:center" text-anchor="middle" transform="translate(1086.622 356.572)"><tspan x="-1054.964" y="-306.271" style="text-align:center">19</tspan></text>
  <text x="-1025.316" y="-324.792" fill="#fff" stroke-width=".265" font-family="Monospace-Regular, Monospace" font-size="3.528" style="text-align:center" text-anchor="middle" transform="translate(1086.622 356.572)"><tspan x="-1028.412" y="-324.792" style="text-align:center">27</tspan></text>
  <text x="-1025.304" y="-315.531" fill="#fff" stroke-width=".265" font-family="Monospace-Regular, Monospace" font-size="3.528" style="text-align:center" text-anchor="middle" transform="translate(1086.622 356.572)"><tspan x="-1028.431" y="-315.531" style="text-align:center">28</tspan></text>
  <text x="-1025.334" y="-306.271" fill="#fff" stroke-width=".265" font-family="Monospace-Regular, Monospace" font-size="3.528" style="text-align:center" text-anchor="middle" transform="translate(1086.622 356.572)"><tspan x="-1028.425" y="-306.271" style="text-align:center">29</tspan></text>
  <path fill="#e0e0e0" d="M44.979 16.606h.265v37.042h-.265z"/>
  <text x="-998.84" y="-324.792" fill="#fff" stroke-width=".265" font-family="Monospace-Regular, Monospace" font-size="3.528" style="text-align:center" text-anchor="middle" transform="translate(1086.622 356.572)"><tspan x="-1001.941" y="-324.792" style="text-align:center">37</tspan></text>
  <text x="-998.847" y="-315.531" fill="#fff" stroke-width=".265" font-family="Monospace-Regular, Monospace" font-size="3.528" style="text-align:center" text-anchor="middle" transform="translate(1086.622 356.572)"><tspan x="-1001.96" y="-315.531" style="text-align:center">38</tspan></text>
  <text x="-998.819" y="-306.271" fill="#fff" stroke-width=".265" font-family="Monospace-Regular, Monospace" font-size="3.528" style="text-align:center" text-anchor="middle" transform="translate(1086.622 356.572)"><tspan x="-1001.953" y="-306.271" style="text-align:center">39</tspan></text>
  <path fill="#e0e0e0" d="M71.438 16.606h.265v37.042h-.265z"/>
  <text x="-972.394" y="-324.792" fill="#fff" stroke-width=".265" font-family="Monospace-Regular, Monospace" font-size="3.528" style="text-align:center" text-anchor="middle" transform="translate(1086.622 356.572)"><tspan x="-975.452" y="-324.792" style="text-align:center">47</tspan></text>
  <text x="-972.468" y="-315.531" fill="#fff" stroke-width=".265" font-family="Monospace-Regular, Monospace" font-size="3.528" style="text-align:center" text-anchor="middle" transform="translate(1086.622 356.572)"><tspan x="-975.472" y="-315.531" style="text-align:center">48</tspan></text>
  <text x="-972.388" y="-306.294" fill="#fff" stroke-width=".265" font-family="Monospace-Regular, Monospace" font-size="3.528" style="text-align:center" text-anchor="middle" transform="translate(1086.622 356.572)"><tspan x="-975.465" y="-306.294" style="text-align:center">49</tspan></text>
  <path fill="#e0e0e0" d="M97.896 16.606h.265v37.042h-.265z"/>
  <text x="-1053.226" y="-333.503" fill="#fff" stroke-width=".265" font-family="Monospace-Bold, Monospace" font-size="4.939" style="text-align:center" text-anchor="middle" transform="translate(1086.622 356.572)"><tspan x="-1055.03" y="-333.503" font-weight="700" style="text-align:center">-2</tspan></text>
  <text x="-1026.789" y="-333.536" fill="#fff" stroke-width=".265" font-family="Monospace-Bold, Monospace" font-size="4.939" style="text-align:center" text-anchor="middle" transform="translate(1086.622 356.572)"><tspan x="-1028.658" y="-333.536" font-weight="700" style="text-align:center">-1</tspan></text>
  <text x="-1071.107" y="-324.276" fill="#fff" stroke-width=".265" font-family="Monospace-Bold, Monospace" font-size="4.939" style="text-align:center" text-anchor="middle" transform="translate(1086.622 356.572)"><tspan x="-1072.976" y="-324.276" font-weight="700" style="text-align:center">-1</tspan></text>
  <text x="-1001.063" y="-333.538" fill="#fff" stroke-width=".265" font-family="Monospace-Bold, Monospace" font-size="4.939" style="text-align:center" text-anchor="middle" transform="translate(1086.622 356.572)"><tspan x="-1001.955" y="-333.538" font-weight="700" style="text-align:center">0</tspan></text>
  <text x="-1071.839" y="-315.018" fill="#fff" stroke-width=".265" font-family="Monospace-Bold, Monospace" font-size="4.939" style="text-align:center" text-anchor="middle" transform="translate(1086.622 356.572)"><tspan x="-1072.731" y="-315.018" font-weight="700" style="text-align:center">0</tspan></text>
  <text x="-973.376" y="-333.536" fill="#fff" stroke-width=".265" font-family="Monospace-Bold, Monospace" font-size="4.939" style="text-align:center" text-anchor="middle" transform="translate(1086.622 356.572)"><tspan x="-975.458" y="-333.536" font-weight="700" style="text-align:center">+1</tspan></text>
  <text x="-1070.611" y="-305.755" fill="#fff" stroke-width=".265" font-family="Monospace-Bold, Monospace" font-size="4.939" style="text-align:center" text-anchor="middle" transform="translate(1086.622 356.572)"><tspan x="-1072.693" y="-305.755" font-weight="700" style="text-align:center">+1</tspan></text>
  <text x="-946.896" y="-333.503" fill="#fff" stroke-width=".265" font-family="Monospace-Bold, Monospace" font-size="4.939" style="text-align:center" text-anchor="middle" transform="translate(1086.622 356.572)"><tspan x="-948.913" y="-333.503" font-weight="700" style="text-align:center">+2</tspan></text>
  <text x="-945.916" y="-324.792" fill="#fff" stroke-width=".265" font-family="Monospace-Regular, Monospace" font-size="3.528" style="text-align:center" text-anchor="middle" transform="translate(1086.622 356.572)"><tspan x="-949.049" y="-324.792" style="text-align:center">57</tspan></text>
  <text x="-945.935" y="-315.531" fill="#fff" stroke-width=".265" font-family="Monospace-Regular, Monospace" font-size="3.528" style="text-align:center" text-anchor="middle" transform="translate(1086.622 356.572)"><tspan x="-949.049" y="-315.531" style="text-align:center">58</tspan></text>
  <text x="-945.98" y="-306.246" fill="#fff" stroke-width=".265" font-family="Monospace-Regular, Monospace" font-size="3.528" style="text-align:center" text-anchor="middle" transform="translate(1086.622 356.572)"><tspan x="-949.042" y="-306.246" style="text-align:center">59</tspan></text>
  <path fill="#e0e0e0" d="M124.354 16.606h.265v37.042h-.265zM18.52 7.345h.266v46.302h-.265zM9.26 25.866h.266v27.78H9.26zm-9.26 0h.265v27.78H0zM150.548 7.345h.265v46.302h-.265z"/>
  <path fill="#e0e0e0" d="M18.52 7.345h132.293v.265H18.52z"/>
</svg>
