<svg xmlns="http://www.w3.org/2000/svg" xml:space="preserve" width="480.713" height="358.117" viewBox="0 0 127.189 94.752">
  <g stroke-linecap="square">
    <path fill="#fff" stroke="#000" stroke-width=".529" d="m79.362 45.588 2.092-1.375-2.092-1.374v1.087H62.563v.53h16.8z" paint-order="markers stroke fill"/>
    <g stroke="#000" stroke-linejoin="round" stroke-width=".529">
      <g fill="#c83737">
        <path d="m118.848 76.058.07-11.096 6.882-6.068v11.112z"/>
        <path d="m118.848 76.058-10.972-3.157V61.793l11.042 3.169z"/>
        <path d="m118.918 64.962-11.042-3.169 7.035-6.024 10.89 3.125z"/>
      </g>
      <g fill="#5aa02c">
        <path d="m111.897 82.11.07-11.096 6.881-6.068v11.112zm0 0-10.973-3.156V67.845l11.042 3.17z"/>
        <path d="m111.966 71.014-11.042-3.169 7.035-6.024 10.89 3.125z"/>
      </g>
      <g fill="#06f">
        <path d="m104.945 88.163.07-11.096 6.882-6.068V82.11zm0 0-10.973-3.157V73.898l11.042 3.169z"/>
        <path d="m105.014 77.067-11.042-3.17 7.035-6.024L111.897 71z"/>
      </g>
      <g fill="#8d5fd3">
        <path d="m118.883 64.954.07-11.096 6.882-6.068v11.112z"/>
        <path d="m118.883 64.954-10.972-3.157V50.69l11.042 3.169zm.07-11.096-11.042-3.169 7.035-6.024 10.89 3.125z"/>
      </g>
      <g fill="#c83737">
        <path d="m111.966 71.014.07-11.096 6.882-6.068v11.112z"/>
        <path d="m111.966 71.014-10.972-3.156V56.749l11.042 3.17zm.07-11.096-11.042-3.169 7.035-6.024 10.89 3.125z"/>
      </g>
      <g fill="#5aa02c">
        <path d="m105.014 77.067.07-11.097 6.882-6.067v11.111z"/>
        <path d="M105.014 77.067 94.042 73.91V62.802l11.042 3.168z"/>
        <path d="m105.084 65.97-11.042-3.168 7.035-6.025 10.89 3.126z"/>
      </g>
      <g fill="#fc0">
        <path d="m119.023 53.87.07-11.096 6.882-6.068v11.112zm0 0-10.973-3.156V39.605l11.042 3.17z"/>
        <path d="m119.092 42.774-11.042-3.169 7.035-6.024 10.89 3.125z"/>
      </g>
      <g fill="#8d5fd3">
        <path d="m112.001 59.91.07-11.096 6.882-6.068v11.112z"/>
        <path d="m112.001 59.91-10.973-3.156V45.645l11.043 3.17z"/>
        <path d="m112.07 48.814-11.042-3.169 7.035-6.024 10.89 3.125z"/>
      </g>
      <g fill="#c83737">
        <path d="m105.084 65.97.07-11.096 6.882-6.068v11.112z"/>
        <path d="m105.084 65.97-10.973-3.156V51.705l11.043 3.17z"/>
        <path d="M105.154 54.874 94.11 51.705l7.035-6.024 10.89 3.125z"/>
      </g>
      <g fill="#c83737">
        <path d="m119.058 42.768.07-11.096 6.881-6.068v11.112zm0 0-10.973-3.157V28.503l11.042 3.169z"/>
        <path d="m119.127 31.672-11.042-3.169 7.035-6.024 10.89 3.125z"/>
      </g>
      <g fill="#8d5fd3">
        <path d="m119.092 31.666.07-11.096 6.882-6.068v11.111z"/>
        <path d="m119.092 31.666-10.972-3.157V17.401l11.042 3.169zm.07-11.096L108.12 17.4l7.035-6.024 10.89 3.126z"/>
      </g>
      <g fill="#fc0">
        <path d="m119.092 20.554.07-11.096 6.882-6.068v11.112z"/>
        <path d="m119.092 20.554-10.972-3.157V6.29l11.042 3.169zm.07-11.096L108.12 6.289l7.035-6.024 10.89 3.125z"/>
      </g>
      <g fill="#5aa02c">
        <path d="m112.14 48.826.07-11.096 6.882-6.068v11.112z"/>
        <path d="m112.14 48.826-10.972-3.156V34.562l11.042 3.168z"/>
        <path d="m112.21 37.73-11.042-3.168 7.035-6.025 10.89 3.125z"/>
      </g>
      <g fill="#c83737">
        <path d="m112.175 37.724.07-11.096 6.882-6.068v11.112z"/>
        <path d="m112.175 37.724-10.972-3.156V23.459l11.042 3.17zm.07-11.096-11.042-3.169 7.035-6.024 10.89 3.125z"/>
      </g>
      <g fill="#06f">
        <path d="m105.154 54.874.07-11.096 6.882-6.068v11.112zm0 0L94.18 51.718V40.609l11.042 3.17z"/>
        <path d="M105.223 43.778 94.181 40.61l7.035-6.024 10.89 3.125z"/>
      </g>
      <g fill="#5aa02c">
        <path d="m105.223 43.778.07-11.096 6.882-6.068v11.112z"/>
        <path d="m105.223 43.778-10.972-3.156V29.513l11.042 3.17zm.07-11.096-11.042-3.169 7.035-6.024 10.89 3.125z"/>
      </g>
      <g fill="#8d5fd3">
        <path d="m112.21 26.622.07-11.096 6.882-6.068V20.57z"/>
        <path d="m112.21 26.622-10.972-3.157V12.357l11.042 3.169z"/>
        <path d="m112.28 15.526-11.042-3.169 7.034-6.024 10.89 3.125z"/>
      </g>
      <g fill="#c83737">
        <path d="m105.293 32.682.07-11.096 6.882-6.068V26.63z"/>
        <path d="m105.293 32.682-10.972-3.156V18.417l11.042 3.17z"/>
        <path d="M105.363 21.586 94.32 18.417l7.034-6.024 10.89 3.125z"/>
      </g>
    </g>
    <g stroke="#000" stroke-linejoin="round" stroke-width=".529">
      <g fill="#fc0">
        <path d="m25.078 44.596.07-11.096 6.882-6.068v11.112z"/>
        <path d="m25.078 44.596-10.973-3.157V30.331L25.148 33.5zm.07-11.096-11.043-3.17 7.035-6.024 10.89 3.126z"/>
      </g>
      <g fill="#8d5fd3">
        <path d="m36.12 47.765.07-11.096 6.882-6.068v11.111z"/>
        <path d="m36.12 47.765-10.972-3.157V33.5l11.042 3.169zm.07-11.096-11.042-3.17 7.034-6.024 10.89 3.126z"/>
      </g>
      <g fill="#8d5fd3">
        <path d="m18.23 50.67.07-11.096 6.882-6.068v11.112z"/>
        <path d="M18.23 50.67 7.259 47.513V36.405L18.3 39.574z"/>
        <path d="M18.3 39.574 7.258 36.405l7.035-6.024 10.89 3.125z"/>
      </g>
      <g fill="#c83737">
        <path d="m11.237 67.818.07-11.096 6.882-6.068v11.112z"/>
        <path d="M11.237 67.818.265 64.662V53.553l11.042 3.17zm.07-11.096L.265 53.553l7.034-6.024 10.89 3.125z"/>
      </g>
      <g fill="#c83737">
        <path d="m11.272 56.716.07-11.096 6.882-6.068v11.112zm0 0L.299 53.56V42.45l11.043 3.17z"/>
        <path d="M11.342 45.62.299 42.451l7.035-6.024 10.89 3.125z"/>
      </g>
      <g fill="#5aa02c">
        <path d="m22.203 70.966.07-11.097 6.882-6.067v11.111zm0 0-10.972-3.157V56.7l11.042 3.168z"/>
        <path d="M22.273 59.87 11.23 56.7l7.034-6.024 10.89 3.126z"/>
      </g>
      <g fill="#c83737">
        <path d="m29.238 53.833.07-11.096 6.882-6.068V47.78z"/>
        <path d="m29.238 53.833-10.973-3.157V39.568l11.043 3.169z"/>
        <path d="m29.308 42.737-11.043-3.17 7.035-6.024 10.89 3.126z"/>
      </g>
      <g fill="#c83737">
        <path d="m47.163 62.047.07-11.096 6.881-6.068v11.112zm0 0L36.19 58.89V47.782l11.042 3.169z"/>
        <path d="M47.232 50.95 36.19 47.783l7.035-6.024 10.89 3.125z"/>
      </g>
      <g fill="#5aa02c">
        <path d="m40.093 68.062.07-11.096 6.882-6.068V62.01zm0 0L29.12 64.905V53.797l11.042 3.169z"/>
        <path d="M40.163 56.966 29.12 53.797l7.035-6.024 10.89 3.125z"/>
      </g>
      <g fill="#5aa02c">
        <path d="m22.238 59.863.07-11.096L29.19 42.7v11.112z"/>
        <path d="m22.238 59.863-10.973-3.156V45.598l11.043 3.17z"/>
        <path d="m22.308 48.767-11.043-3.169 7.035-6.024 10.89 3.125z"/>
      </g>
      <g fill="#06f">
        <path d="m33.17 74.114.069-11.096 6.882-6.068v11.112z"/>
        <path d="m33.17 74.114-10.974-3.156V59.849l11.043 3.17z"/>
        <path d="M33.239 63.018 22.197 59.85l7.034-6.024 10.89 3.125z"/>
      </g>
      <g fill="#c83737">
        <path d="m47.163 50.935.07-11.096 6.881-6.068v11.112zm0 0L36.19 47.78V36.67l11.042 3.17z"/>
        <path d="M47.232 39.84 36.19 36.67l7.035-6.024 10.89 3.125z"/>
      </g>
      <g fill="#5aa02c">
        <path d="m40.162 56.966.07-11.096 6.882-6.068v11.112zm0 0L29.19 53.809V42.701l11.042 3.169z"/>
        <path d="M40.232 45.87 29.19 42.7l7.035-6.024 10.89 3.126z"/>
      </g>
      <path fill="#06f" d="m33.204 63.01.07-11.096 6.882-6.068v11.112zm0 0L22.23 59.854V48.745l11.043 3.17zm.07-11.096L22.23 48.745l7.035-6.024 10.89 3.125z"/>
    </g>
    <text xml:space="preserve" x="-362.587" y="-843.547" fill="#f60" stroke-width=".265" font-family="Monospace" font-size="4.233" paint-order="markers stroke fill" style="text-align:center" text-anchor="middle" transform="translate(389.996 925.981)"><tspan x="-362.587" y="-843.547" style="text-align:center">shape: (H, W, W)</tspan></text>
    <text xml:space="preserve" x="-317.893" y="-873.828" fill="#f60" stroke-width=".265" font-family="Monospace" font-size="4.233" paint-order="markers stroke fill" style="text-align:center" text-anchor="middle" transform="translate(389.996 925.981)"><tspan x="-317.893" y="-873.828" style="text-align:center">flatten</tspan></text>
    <text xml:space="preserve" x="-279.768" y="-832.11" fill="#f60" stroke-width=".265" font-family="Monospace" font-size="4.233" paint-order="markers stroke fill" style="text-align:center" text-anchor="middle" transform="translate(389.996 925.981)"><tspan x="-279.768" y="-832.11" style="text-align:center">shape: (N, 1, W)</tspan></text>
    <text xml:space="preserve" x="-362.718" y="-904.833" fill="#fff" stroke="#000" stroke-width=".794" font-family="Monospace" font-size="4.233" font-weight="400" paint-order="markers stroke fill" style="text-align:center;" text-anchor="middle" transform="translate(389.996 925.981)"><tspan x="-362.718" y="-904.833" style="text-align:center;">Q<tspan baseline-shift="sub" font-size="65%">i</tspan> * ∆x encodings</tspan></text>
  </g>
</svg>
