<svg xmlns="http://www.w3.org/2000/svg" width="535.177" height="132.761" viewBox="0 0 141.599 35.126">
  <text xml:space="preserve" x="-1001.611" y="-418.922" fill="#fff" stroke="#000" stroke-linecap="square" stroke-opacity=".798" stroke-width="1.058" font-family="Monospace" font-size="5.644" font-weight="700" paint-order="markers stroke fill" style="Monospace, Bold&quot;;text-align:start;" text-anchor="middle" transform="translate(1077.408 424.04)"><tspan x="-1001.611" y="-418.922" style="Monospace, Bold&quot;;text-align:start;">Relative Encodings (example)</tspan></text>
  <path fill="#333" d="M9.307 7.344H141.6v9.26H9.307z"/>
  <path fill="#e0e0e0" d="M9.307 7.344H141.6v.266H9.307z"/>
  <path fill="#666" d="M9.307 16.606H141.6v9.26H9.307z"/>
  <path fill="#e0e0e0" d="M9.307 16.606H141.6v.264H9.307z"/>
  <path fill="#666" d="M9.307 25.865H141.6v9.26H9.307z"/>
  <path fill="#e0e0e0" d="M9.307 25.865H141.6v.265H9.307z"/>
  <text x="-1051.838" y="-401.614" fill="#fff" stroke-width=".265" font-family="Monospace-Regular, Monospace" font-size="3.528" style="text-align:center" text-anchor="middle" transform="translate(1077.408 424.04)"><tspan x="-1054.969" y="-401.614" style="text-align:center">10</tspan></text>
  <text x="-1025.342" y="-401.614" fill="#fff" stroke-width=".265" font-family="Monospace-Regular, Monospace" font-size="3.528" style="text-align:center" text-anchor="middle" transform="translate(1077.408 424.04)"><tspan x="-1028.43" y="-401.614" style="text-align:center">20</tspan></text>
  <text x="-1025.296" y="-392.354" fill="#fff" stroke-width=".265" font-family="Monospace-Regular, Monospace" font-size="3.528" style="text-align:center" text-anchor="middle" transform="translate(1077.408 424.04)"><tspan x="-1028.4" y="-392.354" style="text-align:center">7</tspan></text>
  <path fill="#fff" d="M35.765 7.344h.265v27.781h-.265z"/>
  <text x="-998.954" y="-401.614" fill="#fff" stroke-width=".265" font-family="Monospace-Regular, Monospace" font-size="3.528" style="text-align:center" text-anchor="middle" transform="translate(1077.408 424.04)"><tspan x="-1001.959" y="-401.614" style="text-align:center">30</tspan></text>
  <text x="-998.849" y="-392.354" fill="#fff" stroke-width=".265" font-family="Monospace-Regular, Monospace" font-size="3.528" style="text-align:center" text-anchor="middle" transform="translate(1077.408 424.04)"><tspan x="-1001.955" y="-392.354" style="text-align:center">8</tspan></text>
  <path fill="#fff" d="M62.224 7.344h.265v27.781h-.265z"/>
  <text x="-972.388" y="-401.614" fill="#fff" stroke-width=".265" font-family="Monospace-Regular, Monospace" font-size="3.528" style="text-align:center" text-anchor="middle" transform="translate(1077.408 424.04)"><tspan x="-975.47" y="-401.614" style="text-align:center">40</tspan></text>
  <text x="-972.382" y="-392.354" fill="#fff" stroke-width=".265" font-family="Monospace-Regular, Monospace" font-size="3.528" style="text-align:center" text-anchor="middle" transform="translate(1077.408 424.04)"><tspan x="-975.486" y="-392.354" style="text-align:center">9</tspan></text>
  <path fill="#fff" d="M88.682 7.344h.265v27.781h-.265z"/>
  <text x="-1053.226" y="-410.268" fill="#fff" stroke-width=".265" font-family="Monospace-Bold, Monospace" font-size="4.939" style="text-align:center" text-anchor="middle" transform="translate(1077.408 424.04)"><tspan x="-1055.03" y="-410.268" font-weight="700" style="text-align:center">-2</tspan></text>
  <text x="-1026.789" y="-410.268" fill="#fff" stroke-width=".265" font-family="Monospace-Bold, Monospace" font-size="4.939" style="text-align:center" text-anchor="middle" transform="translate(1077.408 424.04)"><tspan x="-1028.658" y="-410.268" font-weight="700" style="text-align:center">-1</tspan></text>
  <text x="-1001.063" y="-410.268" fill="#fff" stroke-width=".265" font-family="Monospace-Bold, Monospace" font-size="4.939" style="text-align:center" text-anchor="middle" transform="translate(1077.408 424.04)"><tspan x="-1001.955" y="-410.268" font-weight="700" style="text-align:center">0</tspan></text>
  <text x="-973.376" y="-410.268" fill="#fff" stroke-width=".265" font-family="Monospace-Bold, Monospace" font-size="4.939" style="text-align:center" text-anchor="middle" transform="translate(1077.408 424.04)"><tspan x="-975.458" y="-410.268" font-weight="700" style="text-align:center">+1</tspan></text>
  <text x="-946.896" y="-410.268" fill="#fff" stroke-width=".265" font-family="Monospace-Bold, Monospace" font-size="4.939" style="text-align:center" text-anchor="middle" transform="translate(1077.408 424.04)"><tspan x="-948.913" y="-410.268" font-weight="700" style="text-align:center">+2</tspan></text>
  <text x="-946.064" y="-401.614" fill="#fff" stroke-width=".265" font-family="Monospace-Regular, Monospace" font-size="3.528" style="text-align:center" text-anchor="middle" transform="translate(1077.408 424.04)"><tspan x="-949.047" y="-401.614" style="text-align:center">50</tspan></text>
  <path fill="#fff" d="M115.14 7.344h.265v27.781h-.265z"/>
  <path fill="#e0e0e0" d="M9.307 7.344h.265v27.781h-.265zm132.027 0h.265v27.781h-.265z"/>
  <text xml:space="preserve" x="-1073.464" y="-400.844" fill="#fff" stroke="#000" stroke-linecap="square" stroke-opacity=".798" stroke-width="1.058" font-family="Monospace" font-size="5.644" font-weight="700" paint-order="markers stroke fill" style="Monospace, Bold&quot;;text-align:start;" text-anchor="middle" transform="translate(1077.408 424.04)"><tspan x="-1073.464" y="-400.844" style="Monospace, Bold&quot;;text-align:start;">∆x</tspan></text>
  <text xml:space="preserve" x="-1073.459" y="-392.168" fill="#fff" stroke="#000" stroke-linecap="square" stroke-opacity=".798" stroke-width="1.058" font-family="Monospace" font-size="5.644" font-weight="700" paint-order="markers stroke fill" style="Monospace, Bold&quot;;text-align:start;" text-anchor="middle" transform="translate(1077.408 424.04)"><tspan x="-1073.459" y="-392.168" style="Monospace, Bold&quot;;text-align:start;">∆y</tspan></text>
</svg>
