<svg xmlns="http://www.w3.org/2000/svg" width="449.378" height="117.735" viewBox="0 0 118.898 31.151">
  <g paint-order="markers stroke fill">
    <path fill="#d40055" d="M37.232 0h39.423v26.194H37.232z"/>
    <text xml:space="preserve" x="-152.914" y="370.747" fill="#fff" stroke-linecap="square" stroke-opacity=".798" stroke-width=".265" font-family="Monospace" font-size="5.644" font-weight="700" style="Monospace, Bold&quot;;text-align:center" text-anchor="middle" transform="translate(209.74 -359.16)"><tspan x="-152.914" y="370.747" style="Monospace, Bold&quot;;">Image</tspan><tspan x="-152.914" y="377.802" style="Monospace, Bold&quot;;">Encoder</tspan></text>
    <text xml:space="preserve" x="-192.093" y="369.475" fill="#fff" stroke="#000" stroke-linecap="square" stroke-width=".794" font-family="Monospace" font-size="5.644" font-weight="400" style="text-align:center;" text-anchor="middle" transform="translate(209.74 -359.16)"><tspan x="-192.093" y="369.475" style="text-align:center;">Image</tspan></text>
    <path fill="#fff" stroke="#000" stroke-linecap="square" stroke-width=".529" d="m32.939 14.472 2.092-1.375-2.092-1.375v1.087H.265v.53h32.674zm78.375 0 2.092-1.375-2.092-1.375v1.087H78.64v.53h32.674z"/>
    <text xml:space="preserve" x="-111.068" y="369.562" fill="#fff" stroke="#000" stroke-linecap="square" stroke-width=".794" font-family="Monospace" font-size="5.644" font-weight="400" style="text-align:center;" text-anchor="middle" transform="translate(209.74 -359.16)"><tspan x="-111.068" y="369.562" style="text-align:center;">image tokens</tspan></text>
    <text xml:space="preserve" x="-192.032" y="378.031" fill="#fff" stroke="#000" stroke-linecap="square" stroke-width=".794" font-family="Monospace" font-size="4.233" font-weight="400" style="text-align:start;" text-anchor="middle" transform="translate(209.74 -359.16)"><tspan x="-192.032" y="378.031" style="text-align:start;">Bx3xH<tspan baseline-shift="sub" font-size="65%" style="text-align:center;">in</tspan>xW<tspan baseline-shift="sub" font-size="65%">in</tspan></tspan></text>
    <path fill="#fff" stroke="#000" stroke-linecap="square" stroke-width=".794" d="M-119.464 376.56v1.13h.494q.364 0 .52-.126.154-.128.154-.42 0-.301-.163-.442-.163-.142-.51-.142zm0-1.27v.93h.486q.302 0 .436-.115.137-.116.137-.374 0-.234-.135-.337-.132-.104-.438-.104zm-.42-.343h.914q.474 0 .73.205.256.204.256.579 0 .283-.136.446-.134.163-.405.205.304.045.475.26.174.213.174.544 0 .42-.275.634-.275.213-.819.213h-.913zm4.517.771-.829 1.108.91 1.207h-.44l-.678-.928-.676.928h-.44l.909-1.207-.83-1.108h.423l.614.837.61-.837zm.72-.77h1.816v.35h-1.397v.91h1.267v.352h-1.267v1.473h-.42zm4.378.77-.83 1.108.91 1.207h-.44l-.678-.928-.676.928h-.44l.91-1.207-.83-1.108h.422l.614.837.61-.837zm.52-.77h.42v1.264h1.143v-1.265h.42v3.086h-.42v-1.47h-1.143v1.47h-.42zm4.577.77-.829 1.108.91 1.207h-.44l-.679-.928-.676.928h-.44l.91-1.207-.83-1.108h.422l.614.837.61-.837zm.238-.77h.407l.295 2.504.352-1.657h.436l.356 1.662.295-2.51h.407l-.46 3.086h-.395l-.42-1.833-.418 1.833h-.394z" aria-label="BxFxHxW" font-family="Monospace" font-size="4.233" style="" text-anchor="middle" transform="translate(209.74 -359.16)"/>
    <text xml:space="preserve" x="-192.053" y="384.959" fill="#f60" stroke-linecap="square" stroke-width=".265" font-family="Monospace" font-size="4.233" style="text-align:center" text-anchor="middle" transform="translate(209.74 -359.16)"><tspan x="-192.053" y="384.959" style="text-align:center">Default:</tspan><tspan x="-192.053" y="390.251" style="text-align:center">Bx3x1024x1024</tspan></text>
    <text xml:space="preserve" x="-111.173" y="384.959" fill="#f60" stroke-linecap="square" stroke-width=".265" font-family="Monospace" font-size="4.233" style="text-align:center" text-anchor="middle" transform="translate(209.74 -359.16)"><tspan x="-111.173" y="384.959" style="text-align:center">Default:</tspan><tspan x="-111.173" y="390.251" style="text-align:center">Bx256x64x64</tspan></text>
  </g>
</svg>
