<svg xmlns="http://www.w3.org/2000/svg" xmlns:xlink="http://www.w3.org/1999/xlink" width="1013.998" height="277.077" viewBox="0 0 268.287 73.31">
  <g transform="translate(95.948 -116.155)">
    <use xlink:href="#a" transform="translate(190.039 8.746)"/>
    <use xlink:href="#a" transform="translate(130.07 47.116)"/>
    <use xlink:href="#a" transform="translate(65.218 42.204)"/>
    <path id="a" fill="#d40055" fill-opacity="1" stroke="none" stroke-linecap="square" stroke-opacity=".798" stroke-width=".265" d="M-75.747 116.155h39.423v26.194h-39.423z" paint-order="markers stroke fill"/>
    <text xml:space="preserve" x="-56.154" y="127.741" fill="#fff" stroke-linecap="square" stroke-opacity=".798" stroke-width=".265" font-family="Monospace" font-size="5.644" font-weight="700" paint-order="markers stroke fill" style="Monospace, Bold&quot;;text-align:center" text-anchor="middle"><tspan x="-56.154" y="127.741" style="Monospace, Bold&quot;;">Image</tspan><tspan x="-56.154" y="134.797" style="Monospace, Bold&quot;;">Encoder</tspan></text>
    <text xml:space="preserve" x="9.088" y="170.182" fill="#fff" stroke-linecap="square" stroke-opacity=".798" stroke-width=".265" font-family="Monospace" font-size="5.644" font-weight="700" paint-order="markers stroke fill" style="Monospace, Bold&quot;;text-align:center" text-anchor="middle"><tspan x="9.088" y="170.182" style="Monospace, Bold&quot;;">Coordinate</tspan><tspan x="9.088" y="177.237" style="Monospace, Bold&quot;;">Encoder</tspan></text>
    <text xml:space="preserve" x="73.915" y="174.857" fill="#fff" stroke-linecap="square" stroke-opacity=".798" stroke-width=".265" font-family="Monospace" font-size="5.644" font-weight="700" paint-order="markers stroke fill" style="Monospace, Bold&quot;;text-align:center" text-anchor="middle"><tspan x="73.915" y="174.857" style="Monospace, Bold&quot;;">Prompt</tspan><tspan x="73.915" y="181.913" style="Monospace, Bold&quot;;">Encoder</tspan></text>
    <text xml:space="preserve" x="133.928" y="136.573" fill="#fff" stroke-linecap="square" stroke-opacity=".798" stroke-width=".265" font-family="Monospace" font-size="5.644" font-weight="700" paint-order="markers stroke fill" style="Monospace, Bold&quot;;text-align:center" text-anchor="middle"><tspan x="133.928" y="136.573" style="Monospace, Bold&quot;;">Mask</tspan><tspan x="133.928" y="143.629" style="Monospace, Bold&quot;;">Decoder</tspan></text>
    <text xml:space="preserve" x="-34.452" y="125.811" fill="#f9f9f9" stroke="#000" stroke-linecap="square" stroke-width="1.058" font-family="Monospace" font-size="5.644" paint-order="markers stroke fill" style="text-align:start"><tspan x="-34.452" y="125.811" style="text-align:start">image tokens</tspan></text>
    <text xml:space="preserve" x="-58.427" y="168.929" fill="#f9f9f9" stroke="#000" stroke-linecap="square" stroke-width="1.058" font-family="Monospace" font-size="5.644" paint-order="markers stroke fill" style="text-align:start"><tspan x="-58.427" y="168.929" style="text-align:start">Point prompts</tspan></text>
    <text xml:space="preserve" x="-58.384" y="178.367" fill="#f9f9f9" stroke="#000" stroke-linecap="square" stroke-width="1.058" font-family="Monospace" font-size="5.644" paint-order="markers stroke fill" style="text-align:start"><tspan x="-58.384" y="178.367" style="text-align:start">Box prompts</tspan></text>
    <text xml:space="preserve" x="41.628" y="168.929" fill="#f9f9f9" stroke="#000" stroke-linecap="square" stroke-width="1.058" font-family="Monospace" font-size="5.644" paint-order="markers stroke fill" style="text-align:center" text-anchor="middle"><tspan x="41.628" y="168.929">points</tspan></text>
    <text xml:space="preserve" x="41.624" y="179.001" fill="#f9f9f9" stroke="#000" stroke-linecap="square" stroke-width="1.058" font-family="Monospace" font-size="5.644" paint-order="markers stroke fill" style="text-align:center" text-anchor="middle"><tspan x="41.624" y="179.001">boxes</tspan></text>
    <text xml:space="preserve" x="44.501" y="143.566" fill="#f9f9f9" stroke="#000" stroke-linecap="square" stroke-width="1.058" font-family="Monospace" font-size="5.644" paint-order="markers stroke fill" style="text-align:start"><tspan x="44.501" y="143.566" style="text-align:start">encoded token</tspan><tspan x="44.501" y="150.621" style="text-align:start">positions</tspan></text>
    <text xml:space="preserve" x="104.223" y="174.782" fill="#f9f9f9" stroke="#000" stroke-linecap="square" stroke-width="1.058" font-family="Monospace" font-size="5.644" paint-order="markers stroke fill" style="text-align:start"><tspan x="104.223" y="174.782" style="text-align:start">prompt</tspan><tspan x="104.223" y="181.837" style="text-align:start">tokens</tspan></text>
    <text xml:space="preserve" x="155.378" y="130.537" fill="#f9f9f9" stroke="#000" stroke-linecap="square" stroke-width="1.058" font-family="Monospace" font-size="5.644" font-weight="400" paint-order="markers stroke fill" style="text-align:start"><tspan x="155.378" y="130.537" style="text-align:start">masks</tspan></text>
    <text xml:space="preserve" x="155.125" y="141.112" fill="#f9f9f9" stroke="#000" stroke-linecap="square" stroke-width="1.058" font-family="Monospace" font-size="5.644" font-weight="400" paint-order="markers stroke fill" style="text-align:start"><tspan x="155.125" y="141.112" style="text-align:start">IoUs</tspan></text>
    <text xml:space="preserve" x="-78.008" y="126.469" fill="#f9f9f9" stroke="#000" stroke-linecap="square" stroke-width="1.058" font-family="Monospace" font-size="5.644" font-weight="400" paint-order="markers stroke fill" style="text-align:end" text-anchor="end"><tspan x="-78.008" y="126.469" style="text-align:end">Image</tspan></text>
    <path fill="#fff" stroke="#000" stroke-linecap="square" stroke-width=".529" d="m167.45 134.041 2.093-1.375-2.093-1.374v1.087h-12.036v.529h12.036zm0 10.661 2.093-1.375-2.093-1.374v1.087h-12.036v.529h12.036zm-181.457 17.62v1.133l2.093-1.375-2.093-1.375v1.088h-9.145v-8.398h-.529v8.927zm109.591 14.313v.529l6.677.052v-31.151h7.747v1.087l2.092-1.375-2.092-1.375v1.133h-8.276v31.1zM31.527 161.75v.529l10.91.052v-24.894h67.57v1.087l2.093-1.375-2.092-1.375v1.133h-68.1v24.843zm-45.534 11.23 2.093-1.375-2.093-1.375v1.088h-34.79v.529h34.79zm0 9.525 2.093-1.375-2.093-1.375v1.088h-34.79v.529h34.79zm64.45-9.525 2.092-1.375-2.092-1.375v1.088H31.527v.529h18.916zm0 9.525 2.092-1.375-2.092-1.375v1.088H31.527v.529h18.916zm59.565-53.012v1.133l2.092-1.375-2.092-1.375v1.088H-34.354v.529h10.673v6.824h.53v-6.824zm-189.421 1.133 2.092-1.375-2.092-1.374v1.087h-16.27v.529h16.27z" paint-order="markers stroke fill"/>
    <circle cx="-23.437" cy="144.853" r="7.673" fill="#0a8" stroke="#000" stroke-linecap="square" stroke-width=".529" paint-order="markers stroke fill"/>
    <text xml:space="preserve" x="-23.532" y="143.375" fill="#1a1a1a" stroke-linecap="square" stroke-width=".529" font-family="Monospace" font-size="4.233" font-weight="400" paint-order="markers stroke fill" style="text-align:center" text-anchor="middle"><tspan x="-23.532" y="143.375" style="">grid</tspan><tspan x="-23.532" y="148.667" style="">shape</tspan></text>
  </g>
</svg>
